<?xml version="1.0" encoding="UTF-8" standalone="no"?>
<!-- Generator: Adobe Illustrator 13.0.0, SVG Export Plug-In . SVG Version: 6.00 Build 14948)  -->

<svg
   version="1.2"
   id="Ebene_1"
   x="0px"
   y="0px"
   width="402.24091"
   height="155.52858"
   viewBox="74.938 2 402.24092 155.52857"
   xml:space="preserve"
   sodipodi:docname="system.svg"
   inkscape:version="1.1.1 (3bf5ae0d25, 2021-09-20)"
   xmlns:inkscape="http://www.inkscape.org/namespaces/inkscape"
   xmlns:sodipodi="http://sodipodi.sourceforge.net/DTD/sodipodi-0.dtd"
   xmlns="http://www.w3.org/2000/svg"
   xmlns:svg="http://www.w3.org/2000/svg"><defs
   id="defs8" /><sodipodi:namedview
   id="namedview6"
   pagecolor="#ffffff"
   bordercolor="#666666"
   borderopacity="1.0"
   inkscape:pageshadow="2"
   inkscape:pageopacity="0.0"
   inkscape:pagecheckerboard="0"
   showgrid="false"
   inkscape:zoom="3.6321311"
   inkscape:cx="199.745"
   inkscape:cy="49.282363"
   inkscape:window-width="3840"
   inkscape:window-height="2066"
   inkscape:window-x="-11"
   inkscape:window-y="-11"
   inkscape:window-maximized="1"
   inkscape:current-layer="Ebene_1" />

<g
   id="g42"><g
     id="g3">
	<path
   id="polyline2177"
   fill="#c40000"
   d="M 94.393,2 C 90.635,2 86.981,5.09 86.31,8.918 V 8.987 9.055 9.123 L 86.242,9.191 V 9.33 9.398 L 86.173,9.535 V 9.673 L 86.104,9.81 v 0.206 l -0.068,0.137 v 0.206 l -0.069,0.205 -0.069,0.206 -0.068,0.41 -0.137,0.479 -0.067,0.479 -0.138,0.479 -0.069,0.547 -0.138,0.548 -0.136,0.616 -0.138,0.548 -0.205,1.165 -0.138,0.617 -0.137,0.547 -0.067,0.548 -0.138,0.547 -0.136,0.549 -0.069,0.548 -0.069,0.479 -0.138,0.411 -0.069,0.479 v 0.206 l -0.067,0.137 v 0.206 0.137 l -0.068,0.206 v 0.137 0.138 l -0.069,0.137 v 0.069 0.067 c -0.07,1.675 0.163,3.96 0.685,4.385 0.665,3.688 12.958,20.759 12.604,23.358 -0.332,2.606 -1.781,10.276 -1.781,10.276 -0.446,2.585 -2.21,4.656 -4.794,4.656 -2.586,0 -4.351,-2.064 -3.905,-4.656 l 2.329,-12.741 h -9.179 l -3.083,17.674 c -0.628,3.588 1.801,6.438 5.411,6.438 h 13.085 c 3.624,0 7.076,-2.851 7.739,-6.438 0,0 3.372,-16.508 3.356,-17.674 -0.013,-1.174 -0.341,-1.302 -0.341,-1.302 0,-1.343 -10.939,-19.4 -12.056,-20.072 -0.481,-0.281 -0.877,-2.069 -0.892,-3.15 -0.021,-1.074 1.439,-8.289 1.439,-8.289 0.444,-2.585 2.894,-4.657 5.48,-4.657 2.585,0 3.664,2.072 3.219,4.657 l -1.986,11.439 h 9.247 l 3.22,-17.194 C 114.163,5.09 111.713,2 107.955,2 Z M 119.6,2 108.641,65.16 c -0.628,3.588 1.802,6.438 5.412,6.438 h 13.084 c 3.624,0 7.138,-2.851 7.809,-6.438 L 146.658,2 h -8.219 l -11.167,61.377 c -0.163,0.893 -1.028,1.646 -1.917,1.646 h -6.509 c -0.911,0 -1.519,-0.747 -1.371,-1.646 L 128.369,2 Z m 31.511,0 -13.221,69.597 h 8.768 l 6.029,-31.511 h 11.166 c 3.632,0 7.074,-2.871 7.739,-6.438 l 4.795,-24.73 C 177.111,5.083 174.667,2 170.91,2 h -11.03 z m 31.306,0 -13.699,69.598 h 19.727 l 1.37,-8.632 h -9.727 l 3.974,-23.495 h 9.727 l 1.369,-7.262 h -9.725 l 4.315,-21.578 h 9.728 L 200.843,2 Z m 23.564,0 -13.151,69.597 h 8.769 l 5.96,-31.511 h 6.234 c 0.818,0.764 0.916,2.171 1.025,2.877 0.162,1.025 0.334,2.333 0.207,3.357 -0.113,1.017 -4.797,25.276 -4.797,25.276 h 8.77 c 0,0 4.932,-26.429 4.932,-26.853 0.016,-0.431 0,-1.785 -0.477,-2.534 -0.322,-0.479 -0.873,-1.583 -1.51,-1.985 -1.223,-0.785 -2.604,-1.304 -2.604,-1.304 h -0.619 c 2.512,-0.988 7.24,-2.617 7.744,-5.273 l 4.793,-24.73 C 231.986,5.083 229.537,2 225.779,2 Z m 46.925,0 -13.223,69.598 h 10.07 l 8.15,-40.347 3.221,40.347 h 8.77 L 283.115,2 h -10.07 L 266.195,38.375 261.673,2 Z m 34.797,0 -13.219,69.598 h 8.768 L 296.47,2 Z m 13.355,0 -13.219,69.598 h 10.139 l 8.152,-40.347 3.219,40.347 h 8.77 L 331.339,2 H 321.2 L 314.419,38.375 309.898,2 Z m 33.981,0 -1.646,8.632 h 5.48 l -10.824,60.966 h 10.004 L 349.08,10.632 h 5.273 L 355.724,2 Z m 24.111,0 -13.699,69.598 h 19.727 l 1.371,-8.632 h -9.727 l 4.043,-23.495 h 9.725 l 1.371,-7.262 h -9.727 l 4.244,-21.578 h 9.729 L 377.578,2 Z m 22.264,0 -13.221,69.598 h 10.137 l 8.154,-40.347 3.219,40.347 h 8.768 L 411.693,2 H 401.554 L 394.771,38.375 390.25,2 Z m 34.869,0 -13.225,69.598 h 20.004 c 3.633,0 7.137,-2.851 7.811,-6.438 L 441.488,8.919 C 442.208,5.083 439.767,2 436.009,2 Z m 37.605,0 c -3.76,0 -7.344,3.09 -8.016,6.918 l -9.797,56.241 c -0.635,3.588 1.74,6.438 5.346,6.438 h 14.453 c 3.623,0 7.137,-2.851 7.811,-6.438 L 474.3,8.918 C 475.029,5.09 472.572,2 468.822,2 Z m -30.14,8.015 h 4.043 c 2.584,0 4.348,2.072 3.902,4.657 l -8.631,45.555 c -0.451,2.585 -2.963,4.727 -5.549,4.727 h -3.973 z m 35.277,0 h 0.275 c 2.584,0 4.281,2.072 3.834,4.657 l -8.217,45.555 c -0.449,2.577 -2.83,4.727 -5.412,4.727 -2.588,0 -3.666,-2.142 -3.223,-4.727 l 8.152,-45.555 0.066,-0.206 0.07,-0.206 0.066,-0.273 0.068,-0.206 0.07,-0.274 0.066,-0.206 0.07,-0.206 0.135,-0.204 0.068,-0.206 0.139,-0.206 0.068,-0.205 0.137,-0.206 0.139,-0.137 0.135,-0.205 0.139,-0.206 0.205,-0.138 0.137,-0.138 0.139,-0.137 0.203,-0.138 0.207,-0.137 0.139,-0.137 0.203,-0.138 0.207,-0.068 0.205,-0.137 0.139,-0.069 0.271,-0.069 0.205,-0.067 h 0.205 l 0.205,-0.069 h 0.275 z m -299.489,0.274 h 4.248 c 0.933,0 2.911,2.136 2.741,3.083 l -3.632,17.194 c -0.169,0.89 -1.37,2.944 -2.258,2.944 h -5.14 -0.068 -0.068 l -0.069,-0.067 h -0.067 -0.069 -0.069 -0.069 v -0.069 h -0.069 -0.068 l -0.07,-0.067 h -0.068 l -0.068,-0.069 -0.068,-0.068 h -0.068 V 33.1 l -0.069,-0.068 -0.069,-0.069 v -0.068 l -0.068,-0.068 -0.07,-0.069 V 32.691 32.62 l -0.068,-0.068 v -0.068 -0.068 l -0.07,-0.068 V 32.28 c 0,-0.114 -0.012,-0.285 0,-0.412 l 4.111,-21.03 c 0.377,-0.311 0.837,-0.549 1.302,-0.549 z m 54.594,0 h 0.07 0.068 0.068 0.068 3.975 c 0.934,0 2.922,2.136 2.738,3.083 l -3.633,17.125 c -0.158,0.897 -2.389,3.014 -3.285,3.014 h -3.769 c -0.777,0 -1.313,-0.511 -1.369,-1.23 0,-0.114 -0.017,-0.278 0,-0.412 l 4.042,-21.03 0.066,-0.068 0.07,-0.068 0.135,-0.069 h 0.067 l 0.069,-0.068 0.068,-0.068 h 0.068 l 0.068,-0.069 h 0.07 l 0.135,-0.067 h 0.068 0.067 0.067 v -0.069 h 0.009 z M 74.938,77.626 v 22.812 H 465.943 V 77.626 Z m 287.435,2.397 h 0.066 0.066 0.07 0.066 0.068 3.016 c 0.813,0 1.396,0.65 1.232,1.507 l -0.754,3.838 h -1.848 l 0.408,-2.535 c 0.094,-0.573 -0.244,-1.028 -0.822,-1.028 -0.572,0 -1.137,0.453 -1.232,1.028 l -0.34,1.851 c -0.059,0.109 0.113,0.629 0.203,0.686 0.254,0.146 2.672,4.153 2.672,4.451 0.057,0.148 0.09,0.22 0.066,0.275 -0.068,0.501 -0.754,3.902 -0.754,3.902 -0.146,0.781 -0.906,1.438 -1.711,1.438 h -2.877 c -0.799,0 -1.313,-0.657 -1.166,-1.438 l 0.688,-3.902 h 1.986 L 361,92.904 c -0.092,0.571 0.24,1.095 0.818,1.095 0.555,0 1.145,-0.52 1.236,-1.095 l 0.41,-2.261 c -0.367,-0.945 -2.791,-4.389 -2.947,-5.207 -0.105,-0.093 -0.15,-0.587 -0.135,-0.959 0.021,-0.407 0.547,-2.946 0.547,-2.946 H 361 v -0.068 -0.066 -0.068 l 0.066,-0.138 v -0.067 l 0.066,-0.07 V 80.987 L 361.2,80.92 v -0.07 l 0.068,-0.067 0.07,-0.07 v -0.066 h 0.066 l 0.07,-0.068 0.066,-0.07 0.068,-0.066 v -0.07 h 0.068 l 0.066,-0.066 0.066,-0.068 h 0.07 l 0.068,-0.067 h 0.068 l 0.068,-0.067 h 0.068 0.137 z m 15.752,0 h 2.467 l 0.342,5.824 3.15,-5.824 h 2.469 l -5.07,8.906 -1.232,6.507 h -2.191 l 1.098,-6.988 z m 22.402,0 h 0.066 0.07 0.066 0.07 0.066 3.014 c 0.813,0 1.381,0.65 1.232,1.507 l -0.754,3.838 h -1.85 l 0.412,-2.535 c 0.092,-0.573 -0.242,-1.028 -0.822,-1.028 -0.572,0 -1.143,0.453 -1.232,1.028 l -0.342,1.851 c -0.072,0.109 0.092,0.629 0.203,0.686 0.242,0.146 2.672,4.153 2.672,4.451 0.072,0.148 0.07,0.22 0.07,0.275 -0.094,0.501 -0.686,3.902 -0.686,3.902 -0.148,0.781 -0.916,1.438 -1.715,1.438 h -2.943 c -0.799,0 -1.314,-0.657 -1.168,-1.438 l 0.686,-3.902 h 1.988 l -0.479,2.809 c -0.094,0.571 0.264,1.095 0.822,1.095 0.57,0 1.119,-0.52 1.232,-1.095 l 0.41,-2.261 c -0.375,-0.945 -2.787,-4.389 -2.945,-5.207 -0.105,-0.093 -0.148,-0.587 -0.137,-0.959 0.021,-0.407 0.549,-2.946 0.549,-2.946 l 0.066,-0.068 V 81.398 81.33 l 0.068,-0.138 v -0.067 l 0.068,-0.07 v -0.067 l 0.068,-0.067 V 80.85 l 0.068,-0.067 0.068,-0.07 v -0.066 h 0.07 l 0.064,-0.068 0.068,-0.07 0.068,-0.066 0.068,-0.07 0.068,-0.066 0.068,-0.068 h 0.068 l 0.07,-0.067 h 0.066 l 0.068,-0.067 h 0.066 0.137 z m 15.959,0 h 4.592 l -0.344,1.851 h -1.166 l -2.396,13.563 h -2.26 l 2.396,-13.563 h -1.164 z m 17.947,0 h 4.109 l -0.344,1.851 h -2.123 l -0.957,4.864 h 2.191 l -0.344,1.574 h -2.125 l -0.889,5.206 h 2.121 l -0.271,1.918 h -4.385 z m 16.92,0 h 2.535 l 0.408,8.906 3.906,-8.837 2.465,-0.069 -2.6,15.413 h -1.918 l 1.23,-8.15 -3.426,8.15 h -1.371 l -0.408,-8.358 -1.508,8.358 h -2.262 z m -367.921,0.55 h 4.042 l -0.275,1.916 h -2.191 l -0.89,4.797 h 2.124 l -0.275,1.645 h -2.192 l -0.821,5.207 h 2.123 l -0.343,1.917 H 80.35 Z m 18.906,0 h 1.918 l 1.027,8.083 1.506,-8.083 h 2.262 l -2.947,15.479 h -1.917 l -0.754,-8.976 -1.78,8.976 h -2.262 z m 20.551,0 h 4.521 l -0.273,1.916 h -1.165 l -2.466,13.564 h -2.19 l 2.396,-13.564 h -1.233 z m 19.934,0 h 4.11 l -0.343,1.916 h -2.124 l -0.959,4.797 h 2.124 l -0.274,1.645 h -2.123 l -0.89,5.207 h 2.123 l -0.273,1.917 h -4.384 z m 19.318,0 h 4.383 c 0.813,0 1.327,0.719 1.165,1.574 l -1.027,5.479 c -0.114,0.594 -1.157,1.078 -1.714,1.303 h 0.138 0.068 0.07 v 0.067 h 0.068 0.07 0.066 0.07 l 0.068,0.067 h 0.068 0.068 0.07 v 0.067 h 0.068 0.07 v 0.07 h 0.068 c 0.092,0.165 0.136,0.659 0.136,0.753 0,0.092 -1.097,6.097 -1.097,6.097 h -1.986 c 0,0 1.061,-5.394 1.097,-5.616 0.022,-0.24 -0.026,-0.529 -0.068,-0.753 -0.016,-0.166 -0.024,-0.45 -0.206,-0.618 h -1.371 l -1.301,6.987 h -1.987 z m 19.59,0 h 4.589 l -0.273,1.916 h -1.163 l -2.467,13.564 h -2.192 l 2.397,-13.564 h -1.232 z m 22.811,0 h 2.604 l -0.822,15.479 h -2.604 l 0.342,-3.563 h -1.574 l -1.303,3.563 h -2.327 z m 18.223,0 h 1.986 l -2.947,15.479 h -1.918 z m 17.672,0 h 1.92 l 1.025,8.083 1.51,-8.083 h 2.191 l -2.877,15.479 h -1.986 l -0.686,-8.976 -1.783,8.976 h -2.258 z m 22.676,0 h 2.535 l 0.408,8.974 3.908,-8.904 h 2.463 l -2.602,15.412 h -1.918 l 1.232,-8.152 -3.428,8.152 h -1.369 l -0.41,-8.356 -1.506,8.356 h -2.193 z m 24.865,0 h 4.041 l -0.275,1.916 h -2.191 l -0.889,4.797 h 2.123 l -0.275,1.645 h -2.189 l -0.891,5.207 h 2.189 l -0.342,1.917 h -4.314 z m 19.863,0 h 1.918 l 1.029,8.083 1.506,-8.083 h 2.191 l -2.875,15.479 h -1.918 l -0.754,-8.976 -1.783,8.976 h -2.26 z m 20.346,0 h 4.59 l -0.342,1.916 h -1.164 l -2.398,13.564 h -2.193 l 2.4,-13.564 h -1.232 z M 163.991,82.42 c -0.108,0 -0.198,0.064 -0.276,0.139 l -0.89,4.656 c 0,0.038 0,0.032 0,0.07 0,0.149 0.104,0.273 0.274,0.273 h 0.821 c 0.204,0 0.717,-0.411 0.755,-0.617 l 0.751,-3.836 c 0.036,-0.221 -0.342,-0.687 -0.547,-0.687 z m 40.551,4.658 -1.438,3.905 h 1.096 z" />
</g><g
     transform="matrix(1.963267,-0.64630396,0.71457078,1.7757055,-174.84509,-72.640415)"
     style="font-size:53.3333px;line-height:1.25;fill:#d61616;stroke:#000000"
     id="g41"><path
       d="m 139.67184,177.70096 q 0,-0.28646 0.0781,-0.75521 0.10417,-0.49479 0.23438,-0.98958 0.1302,-0.52083 0.26041,-0.98958 0.15625,-0.46875 0.23438,-0.75521 L 151.026,139.60202 q 0.1302,-0.18229 0.28645,-0.3125 0.13021,-0.1302 0.33855,-0.20833 0.23437,-0.10417 0.54687,-0.10417 h 0.44271 q 0.57292,0 0.96354,0.20834 0.39062,0.18229 0.625,0.52083 0.23437,0.3125 0.3125,0.75521 0.10417,0.41666 0.10417,0.91146 0,0.41666 -0.0781,0.88541 -0.0521,0.44271 -0.13021,0.88542 -0.0781,0.41666 -0.18229,0.78125 -0.0781,0.36458 -0.13021,0.57291 l -5.41666,18.48958 2.47396,-0.23438 q 4.14062,-0.91146 8.43749,-1.875 4.32292,-0.98958 8.46354,-1.90104 0.46875,-0.23437 0.83333,-0.96354 0.36458,-0.72917 0.70313,-1.90104 0.36458,-1.17187 0.78125,-2.73437 0.41666,-1.58854 1.01562,-3.51563 l 0.54687,-1.79687 q 0.33855,-1.30208 0.59896,-2.65625 0.28646,-1.38021 0.67709,-2.5 0.39062,-1.11979 0.98958,-1.82291 0.59896,-0.72917 1.53646,-0.72917 1.32812,0 2.05729,0.85938 0.72916,0.83333 0.72916,2.10937 0,0.80729 -0.625,2.70833 -0.59896,1.90104 -1.51041,4.63541 -0.33854,1.01563 -0.72917,2.08334 -0.39062,1.0677 -0.72917,2.05729 -0.3125,0.96354 -0.52083,1.79687 -0.20833,0.80729 -0.20833,1.30208 0,0.46875 0.13021,0.9375 0.1302,0.44271 0.1302,0.96354 0,1.17188 -0.625,1.95313 -0.62499,0.78125 -1.71874,1.58854 -0.0521,0.20833 -0.15625,0.65104 -0.0781,0.44271 -0.20834,0.91146 l -0.33854,1.32812 q -0.36458,1.43229 -0.625,2.86458 -0.23437,1.43229 -0.44271,2.83854 -0.18229,1.40625 -0.41666,2.8125 -0.20834,1.40625 -0.54688,2.78646 -0.13021,0.52083 -0.46875,0.9375 -0.3125,0.39062 -0.75521,0.67708 -0.41666,0.28646 -0.88541,0.44271 -0.46875,0.15625 -0.88542,0.15625 -0.625,0 -1.01562,-0.28646 -0.39063,-0.28646 -0.625,-0.67708 -0.20833,-0.39063 -0.28646,-0.80729 -0.0781,-0.41667 -0.0781,-0.70313 0,-0.3125 0.0781,-1.01562 0.10417,-0.72917 0.26042,-1.69271 0.15625,-0.96354 0.36458,-2.08333 0.20833,-1.11979 0.41667,-2.26563 0.49479,-2.65624 1.14583,-5.80728 h -0.18229 q -0.67709,0 -1.45833,0.15625 -0.78125,0.1302 -1.875,0.39062 -0.4948,0.15625 -1.48438,0.41667 -0.96354,0.26041 -2.21354,0.59896 -1.25,0.33854 -2.70833,0.72916 -1.43229,0.39063 -2.86458,0.78125 l -7.05729,1.92708 q -0.49479,1.01563 -0.9375,2.21354 -0.41666,1.17188 -0.78125,2.39584 -0.36458,1.19791 -0.67708,2.36979 -0.28646,1.17187 -0.54688,2.21354 -0.0781,0.28645 -0.33854,0.625 -0.23437,0.33854 -0.57291,0.625 -0.3125,0.28645 -0.67709,0.46875 -0.33854,0.18229 -0.65104,0.18229 -0.57291,0 -0.96354,-0.26042 -0.36458,-0.23437 -0.59896,-0.65104 -0.23437,-0.39063 -0.33854,-0.91146 -0.0781,-0.49479 -0.0781,-0.98958 z"
       style="font-family:'MV Boli';-inkscape-font-specification:'MV Boli'"
       id="path17609" /><path
       d="m 191.96347,177.36242 q 0,-0.75521 0.1823,-1.79688 0.18229,-1.0677 0.18229,-2.6302 -0.85938,0.625 -1.90104,1.48437 -1.04167,0.85938 -2.16146,1.64062 -1.11979,0.78125 -2.23958,1.32813 -1.09375,0.52083 -2.05729,0.52083 -0.78125,0 -1.48438,-0.23437 -0.70312,-0.23438 -1.19791,-0.625 -1.38021,-1.09375 -2.00521,-2.1875 -0.59896,-1.09375 -0.59896,-2.55208 0,-0.65104 0.10417,-1.35417 0.13021,-0.70312 0.36458,-1.61458 0.98958,-4.11458 3.38542,-7.60416 2.42187,-3.51563 5.98958,-5.98958 1.3802,-0.96354 2.76041,-1.22396 1.38021,-0.28646 2.73437,-0.28646 0.59896,0 1.32813,0.0781 0.75521,0.0781 1.35416,0.15625 0.59896,-0.13021 0.96355,-0.1823 0.39062,-0.0521 0.80729,-0.0521 0.78125,0 1.30208,0.20833 0.52083,0.20834 0.83333,0.57292 0.3125,0.33854 0.44271,0.80729 0.15625,0.44271 0.15625,0.9375 0,0.67708 -0.20833,1.30208 -0.20834,0.59896 -0.41667,1.22396 l -3.4375,13.72395 q -0.10416,1.11979 -0.18229,2.05729 -0.0781,0.9375 -0.3125,1.74479 -0.0781,0.23438 -0.20833,0.59896 -0.10417,0.33854 -0.36459,0.67708 -0.26041,0.3125 -0.65104,0.54688 -0.39062,0.23437 -1.01562,0.23437 -0.80729,0 -1.30208,-0.10416 -0.46875,-0.10417 -0.72917,-0.28646 -0.26042,-0.20833 -0.33854,-0.46875 -0.0781,-0.28646 -0.0781,-0.65104 z m -8.64582,-7.86458 q -0.10417,0.36458 -0.23438,1.04166 -0.10417,0.67709 -0.10417,1.35417 0,0.70313 0.20834,1.27604 0.20833,0.54688 0.91146,0.54688 1.09374,0 2.03124,-0.46875 0.96355,-0.49479 1.79688,-1.17188 1.11979,-0.91146 2.26562,-2.03125 1.17188,-1.14583 2.1875,-2.39583 1.04167,-1.25 1.82292,-2.55208 0.80729,-1.32812 1.17187,-2.63021 0.20833,-0.75521 0.33854,-1.74479 0.15625,-0.98958 0.15625,-1.77083 0,-0.33854 -0.15625,-0.65104 -0.15625,-0.33854 -0.59896,-0.33854 -1.27604,0 -2.57812,0.49479 -1.27604,0.49479 -2.47396,1.32812 -1.19791,0.83334 -2.29166,1.97917 -1.06771,1.11979 -1.95313,2.42187 -0.88541,1.27604 -1.53645,2.65625 -0.625,1.35417 -0.96354,2.65625 z"
       style="font-family:'MV Boli';-inkscape-font-specification:'MV Boli'"
       id="path17611" /><path
       d="m 205.24471,168.29992 q 0.49479,-2.0052 1.45833,-4.1927 0.98959,-2.1875 2.3698,-4.21875 1.3802,-2.05729 3.12499,-3.77604 1.77084,-1.74479 3.85417,-2.83854 0.67708,-0.36458 1.48437,-0.54687 0.80729,-0.1823 1.64063,-0.1823 0.85937,0 1.58854,0.15625 0.7552,0.15625 1.27604,0.52084 0.54687,0.36458 0.85937,0.9375 0.3125,0.57291 0.3125,1.40625 0,0.62499 -0.18229,1.27604 -0.18229,0.625 -0.54687,1.14583 -0.36459,0.49479 -0.91146,0.80729 -0.54688,0.3125 -1.27604,0.3125 -0.57292,0 -1.06771,-0.20833 -0.46875,-0.20834 -0.91146,-0.46875 -0.23437,-0.15625 -0.44271,-0.26042 -0.20833,-0.13021 -0.49479,-0.23437 -1.04166,0.46875 -1.97916,1.24999 -0.91146,0.75521 -1.71875,1.69271 -0.78125,0.9375 -1.45834,2.00521 -0.65104,1.06771 -1.19791,2.13541 -0.52083,1.06771 -0.91146,2.10938 -0.36458,1.01562 -0.59896,1.875 -0.18229,0.625 -0.33854,1.43229 -0.13021,0.78125 -0.13021,1.53646 0,0.52083 0.0781,0.98958 0.10416,0.46875 0.33854,0.83333 0.23437,0.36458 0.625,0.57292 0.39062,0.20833 0.96354,0.20833 0.91146,0 1.79687,-0.23437 0.91146,-0.23438 1.77084,-0.59896 0.85937,-0.36459 1.66666,-0.83334 0.83334,-0.49479 1.61458,-0.98958 0.4948,-0.3125 0.98959,-0.65104 0.49479,-0.33854 0.9375,-0.59896 0.4427,-0.26041 0.80729,-0.41666 0.39062,-0.1823 0.67708,-0.1823 0.39063,0 0.72917,0.20834 0.33854,0.18229 0.33854,0.65104 0,0.33854 -0.15625,0.75521 -0.36458,1.01562 -0.98958,1.82291 -0.625,0.80729 -1.40625,1.45834 -0.75521,0.62499 -1.64063,1.11979 -0.85937,0.49479 -1.71875,0.91145 -1.61458,0.85938 -3.28124,1.30209 -1.64063,0.41666 -2.76042,0.41666 -0.36458,0 -0.85937,-0.0781 -0.49479,-0.0781 -0.85938,-0.23438 -2.10937,-0.91145 -3.07291,-2.44791 -0.96354,-1.53646 -0.96354,-3.64583 0,-0.91146 0.1302,-1.90104 0.15625,-1.01563 0.44271,-2.10938 z"
       style="font-family:'MV Boli';-inkscape-font-specification:'MV Boli'"
       id="path17613" /><path
       d="m 238.76032,165.87805 q -0.52083,0 -1.17187,0.26042 -0.65104,0.23437 -1.30208,0.57291 -0.65104,0.33854 -1.25,0.70313 -0.59896,0.36458 -1.04167,0.57291 l -2.36979,9.375 q -0.13021,0.54687 -0.65104,0.83333 -0.52083,0.28646 -0.96354,0.28646 -1.40625,0 -1.92708,-0.54688 -0.4948,-0.57291 -0.4948,-1.48437 0,-0.39063 0.0521,-0.78125 0.0781,-0.41667 0.18229,-0.85937 l 0.10417,-0.44271 q 0.15625,-0.70313 0.41666,-1.77083 0.28646,-1.06771 0.59896,-2.23959 0.3125,-1.19791 0.625,-2.39583 0.33854,-1.22396 0.625,-2.23958 0.28646,-0.98958 0.83333,-2.94271 0.57292,-1.95312 1.25,-4.37499 0.70313,-2.42188 1.43229,-5.05209 0.75521,-2.65624 1.40625,-5.05208 0.67708,-2.39583 1.19792,-4.24478 0.52083,-1.875 0.72916,-2.76042 0.23438,-0.36458 0.72917,-0.59896 0.49479,-0.23437 1.17187,-0.23437 0.46875,0 0.96355,0.13021 0.49479,0.10416 0.88541,0.36458 0.41667,0.23437 0.67708,0.625 0.26042,0.36458 0.26042,0.85937 0,0.33854 -0.15625,0.80729 -1.5625,4.53125 -3.09895,9.40104 -1.53646,4.84375 -2.78646,9.8177 0.33854,-0.20833 1.25,-0.85937 0.91146,-0.65104 2.0052,-1.51042 1.1198,-0.85937 2.23959,-1.79687 1.11979,-0.9375 1.875,-1.69271 0.52083,-0.52083 1.04166,-1.06771 0.54688,-0.57291 1.01563,-1.0677 0.49479,-0.52084 0.85937,-0.91146 0.36458,-0.41667 0.57292,-0.65104 0.49479,-0.57292 1.0677,-0.9375 0.59896,-0.39063 1.19792,-0.39063 0.57292,0 1.04167,0.18229 0.46875,0.1823 0.80729,0.46875 0.33854,0.26042 0.52083,0.625 0.18229,0.33854 0.18229,0.65104 0,0.39063 -0.18229,0.83334 -0.18229,0.44271 -0.44271,0.85937 -0.23437,0.41667 -0.52083,0.78125 -0.28646,0.33854 -0.49479,0.52083 -0.70313,0.625 -1.58854,1.38021 -0.88542,0.72917 -1.84896,1.51042 -0.96354,0.75521 -1.97917,1.53646 -0.98958,0.7552 -1.92708,1.45833 1.64063,0.91146 2.68229,2.44791 1.06771,1.51042 1.69271,3.38542 0.625,1.84895 0.85937,3.90625 0.23438,2.05729 0.23438,4.01041 0,0.15625 -0.026,0.49479 -0.026,0.3125 -0.10417,0.59896 -0.13021,0.46875 -0.3125,0.85937 -0.18229,0.39063 -0.49479,0.65104 -0.28646,0.28646 -0.72917,0.44271 -0.41666,0.15625 -1.04166,0.15625 -0.59896,0 -1.01563,-0.20833 -0.41666,-0.20833 -0.70312,-0.54688 -0.26042,-0.33854 -0.39063,-0.7552 -0.1302,-0.41667 -0.1302,-0.83334 0,-1.30208 -0.0781,-2.68229 -0.0781,-1.40625 -0.3125,-2.70833 -0.23437,-1.30208 -0.65104,-2.44791 -0.39063,-1.17188 -1.04167,-2.00521 -0.46875,-0.59896 -0.88541,-0.9375 -0.39063,-0.33854 -0.96354,-0.33854 z m 4.94792,-11.71874 z"
       style="font-family:'MV Boli';-inkscape-font-specification:'MV Boli'"
       id="path17615" /><path
       d="m 254.15094,173.87284 q 0.20833,0 0.36458,0.0521 0.18229,0.0521 0.39063,0.13021 0.20833,0.0521 0.46875,0.10416 0.26041,0.0521 0.67708,0.0521 1.22396,0 2.70833,-0.26042 1.51042,-0.26042 2.83854,-0.67708 1.32813,-0.41667 2.26562,-0.9375 0.96355,-0.54688 1.09375,-1.11979 0.0781,-0.3125 0.0781,-0.54688 0,-0.44271 -0.44271,-0.83333 -0.41667,-0.41667 -1.06771,-0.78125 -0.65104,-0.36458 -1.40625,-0.67708 -0.7552,-0.3125 -1.40624,-0.57292 l -0.88542,-0.36458 q -0.67708,-0.26042 -1.32813,-0.625 -0.65104,-0.39063 -1.22395,-0.88542 -0.54688,-0.49479 -0.98959,-1.14583 -0.41666,-0.67708 -0.625,-1.53646 -0.10416,-0.36458 -0.18229,-0.72916 -0.0521,-0.36459 -0.0521,-0.78125 0,-0.67709 0.44271,-1.53646 0.46875,-0.88542 1.22396,-1.74479 0.78125,-0.85938 1.74479,-1.64063 0.98958,-0.78125 2.05729,-1.30208 0.78125,-0.54687 1.51041,-0.98958 0.72917,-0.44271 1.45833,-0.75521 0.75521,-0.3125 1.51042,-0.49479 0.78125,-0.18229 1.64062,-0.18229 0.78125,0 1.69271,0.0781 0.91146,0.0781 1.66667,0.36459 0.75521,0.28645 1.25,0.85937 0.52083,0.54688 0.52083,1.48438 0,0.28645 -0.0781,0.7552 -0.0781,0.46875 -0.26042,0.9375 -0.18229,0.46875 -0.44271,0.80729 -0.26042,0.33855 -0.625,0.33855 -0.59896,0 -0.98958,-0.23438 -0.39063,-0.23437 -0.70313,-0.49479 -0.3125,-0.28646 -0.65104,-0.52083 -0.33854,-0.23438 -0.83333,-0.23438 -0.59896,0 -1.40625,0.23438 -0.78125,0.20833 -1.61458,0.59895 -0.83333,0.36459 -1.64063,0.85938 -0.78125,0.49479 -1.43229,1.01562 -0.625,0.52084 -1.01562,1.04167 -0.39063,0.49479 -0.39063,0.91146 0,0.4427 0.28646,0.72916 0.28646,0.28646 0.72917,0.49479 0.57291,0.3125 1.30208,0.625 0.75521,0.3125 1.51042,0.625 0.7552,0.3125 1.45833,0.625 0.72917,0.3125 1.25,0.57292 0.70312,0.36458 1.25,0.72917 0.57291,0.33854 0.96354,0.7552 0.39062,0.41667 0.59896,0.9375 0.20833,0.52084 0.20833,1.22396 0,0.33854 -0.0521,0.67708 -0.0521,0.33854 -0.15625,0.78125 -0.0781,0.39063 -0.28646,0.91146 -0.18229,0.52083 -0.41667,1.04167 -0.20833,0.49479 -0.44271,0.91145 -0.23437,0.39063 -0.39062,0.52084 -1.01563,0.9375 -2.39583,1.77083 -1.38021,0.80729 -2.89063,1.43229 -1.48437,0.59896 -2.99479,0.96354 -1.48437,0.36458 -2.73437,0.36458 -0.625,0 -1.38021,-0.23437 -0.7552,-0.26042 -1.40625,-0.65104 -0.625,-0.41667 -1.0677,-0.9375 -0.41667,-0.52083 -0.41667,-1.04167 0,-0.26041 0.15625,-0.57291 0.15625,-0.33854 0.39062,-0.59896 0.23438,-0.28646 0.4948,-0.46875 0.28645,-0.20833 0.52083,-0.20833 z"
       style="font-family:'MV Boli';-inkscape-font-specification:'MV Boli'"
       id="path17617" /></g></g></svg>
