<?xml version="1.0" encoding="UTF-8" standalone="no"?>
<!-- Generator: Adobe Illustrator 16.0.3, SVG Export Plug-In . SVG Version: 6.00 Build 0)  -->

<svg
   version="1.1"
   id="svg2"
   inkscape:version="1.1.1 (3bf5ae0d25, 2021-09-20)"
   sodipodi:version="0.32"
   sodipodi:docname="system.svg"
   x="0px"
   y="0px"
   width="576.53198"
   height="136.56921"
   viewBox="0 0 576.53197 136.56921"
   enable-background="new 0 0 566.929 66.041"
   xml:space="preserve"
   xmlns:inkscape="http://www.inkscape.org/namespaces/inkscape"
   xmlns:sodipodi="http://sodipodi.sourceforge.net/DTD/sodipodi-0.dtd"
   xmlns="http://www.w3.org/2000/svg"
   xmlns:svg="http://www.w3.org/2000/svg"><defs
   id="defs16" />
<sodipodi:namedview
   height="206.5px"
   width="1772.6px"
   inkscape:window-x="0"
   inkscape:window-y="0"
   inkscape:current-layer="svg2"
   inkscape:pageshadow="2"
   inkscape:window-width="1440"
   inkscape:pageopacity="0.0"
   inkscape:window-height="844"
   objecttolerance="10.0"
   inkscape:cx="811.71875"
   borderopacity="1.0"
   inkscape:cy="85.9375"
   guidetolerance="10.0"
   pagecolor="#ffffff"
   inkscape:zoom="0.64"
   bordercolor="#666666"
   gridtolerance="10.0"
   id="base"
   inkscape:pagecheckerboard="0"
   showgrid="false"
   inkscape:window-maximized="0">
	</sodipodi:namedview>












<g
   id="g59"><path
     id="path10"
     fill="#1f00cc"
     d="m 295.97108,18.284623 4.352,-6.971 h -66.25 c -5.084,0.076 -9.82,1.502 -14.135,4.274 l -5.084,3.736 c -2.234,-2.696 -4.43,-4.584 -6.588,-5.854 -2.695,-1.502 -5.699,-2.156 -9.127,-2.156 H 86.938075 l -3.66,11.169 -1.808,-11.168 h -24.538 l -0.885,2.079 -2.311,-0.809 c -12.943,-4.4300003 -25.383,-3.0810003 -37.131,4.198 -5.971,3.813 -10.4769999,8.59 -13.2499999,14.443 -2.84999998,5.855 -3.81399998,12.364 -3.15799998,19.76 0.461,4.43 2.00199998,8.551 4.69899998,12.287 2.695,3.736 6.1229999,6.74 10.3979999,8.897 6.201,3.235 12.941,4.198 19.99,3.081 h 21.84 l 5.469,-12.133 2.004,12.133 131.266005,-0.153 c 2.852,0 5.701,-0.694 8.59,-1.964 2.85,-1.271 5.314,-3.082 7.549,-5.316 3.66,3.891 8.012,6.51 13.096,7.55 6.895,1.656 13.559,0.462 19.836,-3.505 l 0.811,-0.617 -0.617,3.968 h 26.73 l 0.656,-4.622 c 1.578,-0.23 2.85,-1.039 3.967,-2.389 h 72.682 c 11.17,0 19.373,-2.85 24.381,-8.589 l 5.393,8.589 h 77.768 v -10.937 l 13.98,10.938 h 96.102 v -49.842 h -104.114 v 10.784 l -13.789,-10.784 h -55.387 l -6.818,12.942 -7.549,-13.02 h -83.159 z" /><path
     id="path12"
     fill="#ffffff"
     d="m 312.95608,26.605623 h -8.318 l -19.605,33.009 h 23.342 v -7.318 h -9.514 l 9.514,-17.063 13.789,24.42 h 10.631 v -0.076 h 16.6 c 14.367,0 21.57,-5.547 21.57,-16.523 0,-1.888 -0.23,-3.66 -0.732,-5.316 l 13.25,21.84 h 6.355 l 19.066,-32.932 h -10.092 l -11.903,21.566 -12.557,-21.568 h -10.861 l 3.004,4.93 c -3.504,-3.313 -8.551,-4.93 -15.137,-4.93 h -21.84 v 27.384 z m 25.961,7.471 h 12.52 c 6.508,0 9.82,2.851 9.82,8.551 0,3.429 -1.039,5.932 -3.004,7.241 -1.887,1.348 -5.469,2.003 -10.477,2.003 h -8.82 v -17.795 z" /><polygon
     id="polygon14"
     fill="#ffffff"
     points="395.146,49.565 405.007,49.565 405.007,49.488 418.488,49.488 418.488,42.131 409.052,42.131 418.412,25.146 432.201,49.565 442.947,49.565 442.947,49.488 448.416,49.488 448.416,29.575 473.337,49.488 479.808,49.488 479.808,16.557 471.179,16.557 471.179,36.238 446.027,16.557 439.595,16.557 439.595,43.941 423.033,16.557 414.675,16.557 "
     transform="translate(-0.07092488,10.048623)" /><path
     id="path16"
     fill="#ffffff"
     d="m 484.66708,28.452623 c -1.348,1.195 -2.041,3.352 -2.041,6.434 v 16.33 c 0,3.159 0.693,5.316 2.002,6.51 1.271,1.195 3.582,1.811 6.973,1.811 h 19.373 c 3.352,0 5.777,-0.616 7.049,-1.811 1.271,-1.193 2.004,-3.351 2.004,-6.51 v -4.583 l -9.514,-0.154 v 5.085 h -18.412 v -17.295 h 18.412 v 4.507 h 9.514 v -3.89 c 0,-3.236 -0.732,-5.393 -2.004,-6.434 -1.271,-1.271 -3.504,-1.887 -7.049,-1.887 h -19.373 c -3.352,0.04 -5.663,0.618 -6.934,1.887 z" /><polygon
     id="polygon18"
     fill="#ffffff"
     points="558.458,24.028 558.458,16.557 523.255,16.557 523.255,49.488 558.882,49.488 558.882,41.862 532.769,41.862 532.769,36.008 547.83,36.008 547.83,28.766 532.769,28.766 532.769,24.028 "
     transform="translate(-0.07092488,10.048623)" /><path
     id="path20"
     fill="#ffffff"
     d="m 50.770075,20.402623 c -10.322,-3.735 -20.299,-2.541 -29.851,3.352 -9.436,5.777 -13.5569999,14.598 -12.4399999,26.114 0.307,3.352 1.5779999,6.433 3.7359999,9.129 2.156,2.696 4.93,4.621 8.242,6.123 3.35,1.503 6.895,2.08 10.631,1.888 4.121,-0.231 7.857,-1.425 11.516,-3.429 l 0.385,-0.23 -1.424,3.158 h 10.014 l 6.434,-13.981 h 11.092 l 2.465,13.981 h 16.41 l 8.396,-26.191 5.393005,26.191 h 6.508 l 12.557,-29.041 1.271,29.041 h 9.592 l -1.965,-46.914 h -11.673 l -10.938,25.652 -4.699,-25.652 h -9.592005 l -12.362,37.939 -6.356,-37.939 h -11.824 l -18.104,40.944 2.619,-17.141 h -17.873 l -1.348,8.821 h 7.473 l -0.732,4.698 -7.857,0.54 c -3.158,-0.809 -5.393,-2.465 -6.895,-5.085 -1.271,-2.465 -1.887,-5.007 -1.578,-7.856 0.385,-3.968 2.311,-7.55 5.969,-10.785 3.313,-2.928 7.551,-4.584 12.635,-5.238 4.854,-0.732 9.129,-0.231 12.711,1.348 z m 16.91,22.957 h -5.931 l 4.121,-9.051 z" /><polygon
     id="polygon22"
     fill="#ffffff"
     points="132.576,56.46 159.46,56.46 161.193,46.484 144.246,46.484 145.593,38.087 160.269,38.087 161.847,27.996 147.019,27.996 148.291,19.6 165.199,19.6 166.779,9.508 140.085,9.508 "
     transform="translate(-0.07092488,10.048623)" /><polygon
     id="polygon24"
     fill="#ffffff"
     points="264.15,24.875 258.179,9.508 247.087,9.508 258.564,34.273 254.945,56.46 264.689,56.46 267.617,36.894 284.949,9.508 273.74,9.508 "
     transform="translate(-0.07092488,10.048623)" /><path
     id="path26"
     fill="#ffffff"
     d="m 237.80908,20.018623 c -5.469,-1.271 -10.477,0 -15.33,3.736 -4.852,3.582 -8.012,8.743 -9.668,15.253 -1.424,6.432 -0.73,12.518 1.889,17.871 2.773,5.547 6.74,8.898 12.209,10.092 5.393,1.271 10.4,0 15.254,-3.659 4.854,-3.736 8.088,-8.897 9.59,-15.407 1.502,-6.432 0.811,-12.44 -1.887,-17.871 -2.697,-5.47 -6.74,-8.821 -12.057,-10.015 z m -0.808,9.359 c 2.619,1.04 4.275,3.429 5.162,6.972 0.885,3.582 0.693,7.318 -0.617,11.285 -1.271,3.891 -3.35,6.818 -6.047,8.667 -2.773,2.003 -5.393,2.388 -7.857,1.271 -2.619,-1.04 -4.352,-3.429 -5.238,-6.972 -0.963,-3.659 -0.617,-7.396 0.654,-11.285 1.271,-3.813 3.352,-6.818 6.047,-8.821 2.657,-1.887 5.355,-2.311 7.896,-1.117 z" /><path
     id="path28"
     fill="#ffffff"
     d="m 204.95408,21.674623 c -1.887,-1.194 -3.736,-1.81 -5.545,-1.81 h -17.949 l -7.396,46.644 h 21.57 c 2.311,0 4.699,-0.731 7.203,-2.233 2.465,-1.503 4.352,-3.352 5.854,-5.624 1.58,-2.618 2.156,-5.161 1.889,-7.856 -0.309,-2.928 -1.889,-5.701 -4.623,-8.32 5.469,-5.623 6.74,-10.939 3.891,-16.023 -1.234,-1.889 -2.775,-3.508 -4.894,-4.778 z m -16.678,16.755 1.502,-8.666 h 6.279 c 1.58,0 2.773,0.461 3.582,1.348 0.693,0.809 0.963,1.811 0.809,3.004 -0.154,1.195 -0.73,2.157 -1.656,3.005 -1.039,0.886 -2.311,1.349 -3.813,1.349 h -6.703 l 10.861,11.092 c 0.887,0.887 1.35,2.042 1.271,3.313 -0.076,1.271 -0.693,2.312 -1.811,3.236 -1.115,0.885 -2.695,1.425 -4.852,1.425 h -8.475 l 1.502,-9.437 h 8.088 c 1.811,0 3.236,0.539 4.275,1.502 z" /><path
     id="path30"
     fill="#ffffff"
     d="m 276.36608,62.310623 c 0,-1.349 -0.539,-2.389 -1.35,-3.275 -0.885,-0.885 -2.002,-1.424 -3.311,-1.424 -1.271,0 -2.389,0.539 -3.275,1.424 -0.885,0.887 -1.348,1.965 -1.348,3.275 0,1.271 0.463,2.311 1.348,3.234 0.887,0.887 2.004,1.426 3.275,1.426 1.27,0 2.387,-0.539 3.311,-1.426 0.811,-0.924 1.35,-1.963 1.35,-3.234 z m -1.889,-2.774 c 0.693,0.693 1.117,1.656 1.117,2.773 0,1.04 -0.461,1.965 -1.117,2.773 -0.654,0.654 -1.656,1.04 -2.771,1.04 -1.117,0 -2.08,-0.386 -2.773,-1.04 -0.811,-0.809 -1.195,-1.732 -1.195,-2.773 0,-1.117 0.387,-2.08 1.195,-2.773 0.654,-0.809 1.656,-1.194 2.773,-1.194 1.154,0 2.117,0.347 2.771,1.194 z" /><path
     id="path32"
     fill="#ffffff"
     d="m 273.36208,59.921623 -1.271,-0.308 h -2.234 v 5.238 h 0.732 v -2.388 h 1.039 l 1.426,2.388 h 0.809 l -1.58,-2.388 c 1.041,0 1.656,-0.462 1.656,-1.502 0.038,-0.462 -0.116,-0.886 -0.577,-1.04 z m -0.154,1.041 c 0,0.616 -0.617,0.885 -1.734,0.885 h -0.885 v -1.656 h 1.424 c 0.847,0 1.195,0.308 1.195,0.771 z" /><g
     transform="matrix(1.963267,-0.64630396,0.71457078,1.7757055,-75.492014,-93.599787)"
     style="font-size:53.3333px;line-height:1.25;fill:#d61616;stroke:#000000"
     id="g41"><path
       d="m 139.67184,177.70096 q 0,-0.28646 0.0781,-0.75521 0.10417,-0.49479 0.23438,-0.98958 0.1302,-0.52083 0.26041,-0.98958 0.15625,-0.46875 0.23438,-0.75521 L 151.026,139.60202 q 0.1302,-0.18229 0.28645,-0.3125 0.13021,-0.1302 0.33855,-0.20833 0.23437,-0.10417 0.54687,-0.10417 h 0.44271 q 0.57292,0 0.96354,0.20834 0.39062,0.18229 0.625,0.52083 0.23437,0.3125 0.3125,0.75521 0.10417,0.41666 0.10417,0.91146 0,0.41666 -0.0781,0.88541 -0.0521,0.44271 -0.13021,0.88542 -0.0781,0.41666 -0.18229,0.78125 -0.0781,0.36458 -0.13021,0.57291 l -5.41666,18.48958 2.47396,-0.23438 q 4.14062,-0.91146 8.43749,-1.875 4.32292,-0.98958 8.46354,-1.90104 0.46875,-0.23437 0.83333,-0.96354 0.36458,-0.72917 0.70313,-1.90104 0.36458,-1.17187 0.78125,-2.73437 0.41666,-1.58854 1.01562,-3.51563 l 0.54687,-1.79687 q 0.33855,-1.30208 0.59896,-2.65625 0.28646,-1.38021 0.67709,-2.5 0.39062,-1.11979 0.98958,-1.82291 0.59896,-0.72917 1.53646,-0.72917 1.32812,0 2.05729,0.85938 0.72916,0.83333 0.72916,2.10937 0,0.80729 -0.625,2.70833 -0.59896,1.90104 -1.51041,4.63541 -0.33854,1.01563 -0.72917,2.08334 -0.39062,1.0677 -0.72917,2.05729 -0.3125,0.96354 -0.52083,1.79687 -0.20833,0.80729 -0.20833,1.30208 0,0.46875 0.13021,0.9375 0.1302,0.44271 0.1302,0.96354 0,1.17188 -0.625,1.95313 -0.62499,0.78125 -1.71874,1.58854 -0.0521,0.20833 -0.15625,0.65104 -0.0781,0.44271 -0.20834,0.91146 l -0.33854,1.32812 q -0.36458,1.43229 -0.625,2.86458 -0.23437,1.43229 -0.44271,2.83854 -0.18229,1.40625 -0.41666,2.8125 -0.20834,1.40625 -0.54688,2.78646 -0.13021,0.52083 -0.46875,0.9375 -0.3125,0.39062 -0.75521,0.67708 -0.41666,0.28646 -0.88541,0.44271 -0.46875,0.15625 -0.88542,0.15625 -0.625,0 -1.01562,-0.28646 -0.39063,-0.28646 -0.625,-0.67708 -0.20833,-0.39063 -0.28646,-0.80729 -0.0781,-0.41667 -0.0781,-0.70313 0,-0.3125 0.0781,-1.01562 0.10417,-0.72917 0.26042,-1.69271 0.15625,-0.96354 0.36458,-2.08333 0.20833,-1.11979 0.41667,-2.26563 0.49479,-2.65624 1.14583,-5.80728 h -0.18229 q -0.67709,0 -1.45833,0.15625 -0.78125,0.1302 -1.875,0.39062 -0.4948,0.15625 -1.48438,0.41667 -0.96354,0.26041 -2.21354,0.59896 -1.25,0.33854 -2.70833,0.72916 -1.43229,0.39063 -2.86458,0.78125 l -7.05729,1.92708 q -0.49479,1.01563 -0.9375,2.21354 -0.41666,1.17188 -0.78125,2.39584 -0.36458,1.19791 -0.67708,2.36979 -0.28646,1.17187 -0.54688,2.21354 -0.0781,0.28645 -0.33854,0.625 -0.23437,0.33854 -0.57291,0.625 -0.3125,0.28645 -0.67709,0.46875 -0.33854,0.18229 -0.65104,0.18229 -0.57291,0 -0.96354,-0.26042 -0.36458,-0.23437 -0.59896,-0.65104 -0.23437,-0.39063 -0.33854,-0.91146 -0.0781,-0.49479 -0.0781,-0.98958 z"
       style="font-family:'MV Boli';-inkscape-font-specification:'MV Boli'"
       id="path17609" /><path
       d="m 191.96347,177.36242 q 0,-0.75521 0.1823,-1.79688 0.18229,-1.0677 0.18229,-2.6302 -0.85938,0.625 -1.90104,1.48437 -1.04167,0.85938 -2.16146,1.64062 -1.11979,0.78125 -2.23958,1.32813 -1.09375,0.52083 -2.05729,0.52083 -0.78125,0 -1.48438,-0.23437 -0.70312,-0.23438 -1.19791,-0.625 -1.38021,-1.09375 -2.00521,-2.1875 -0.59896,-1.09375 -0.59896,-2.55208 0,-0.65104 0.10417,-1.35417 0.13021,-0.70312 0.36458,-1.61458 0.98958,-4.11458 3.38542,-7.60416 2.42187,-3.51563 5.98958,-5.98958 1.3802,-0.96354 2.76041,-1.22396 1.38021,-0.28646 2.73437,-0.28646 0.59896,0 1.32813,0.0781 0.75521,0.0781 1.35416,0.15625 0.59896,-0.13021 0.96355,-0.1823 0.39062,-0.0521 0.80729,-0.0521 0.78125,0 1.30208,0.20833 0.52083,0.20834 0.83333,0.57292 0.3125,0.33854 0.44271,0.80729 0.15625,0.44271 0.15625,0.9375 0,0.67708 -0.20833,1.30208 -0.20834,0.59896 -0.41667,1.22396 l -3.4375,13.72395 q -0.10416,1.11979 -0.18229,2.05729 -0.0781,0.9375 -0.3125,1.74479 -0.0781,0.23438 -0.20833,0.59896 -0.10417,0.33854 -0.36459,0.67708 -0.26041,0.3125 -0.65104,0.54688 -0.39062,0.23437 -1.01562,0.23437 -0.80729,0 -1.30208,-0.10416 -0.46875,-0.10417 -0.72917,-0.28646 -0.26042,-0.20833 -0.33854,-0.46875 -0.0781,-0.28646 -0.0781,-0.65104 z m -8.64582,-7.86458 q -0.10417,0.36458 -0.23438,1.04166 -0.10417,0.67709 -0.10417,1.35417 0,0.70313 0.20834,1.27604 0.20833,0.54688 0.91146,0.54688 1.09374,0 2.03124,-0.46875 0.96355,-0.49479 1.79688,-1.17188 1.11979,-0.91146 2.26562,-2.03125 1.17188,-1.14583 2.1875,-2.39583 1.04167,-1.25 1.82292,-2.55208 0.80729,-1.32812 1.17187,-2.63021 0.20833,-0.75521 0.33854,-1.74479 0.15625,-0.98958 0.15625,-1.77083 0,-0.33854 -0.15625,-0.65104 -0.15625,-0.33854 -0.59896,-0.33854 -1.27604,0 -2.57812,0.49479 -1.27604,0.49479 -2.47396,1.32812 -1.19791,0.83334 -2.29166,1.97917 -1.06771,1.11979 -1.95313,2.42187 -0.88541,1.27604 -1.53645,2.65625 -0.625,1.35417 -0.96354,2.65625 z"
       style="font-family:'MV Boli';-inkscape-font-specification:'MV Boli'"
       id="path17611" /><path
       d="m 205.24471,168.29992 q 0.49479,-2.0052 1.45833,-4.1927 0.98959,-2.1875 2.3698,-4.21875 1.3802,-2.05729 3.12499,-3.77604 1.77084,-1.74479 3.85417,-2.83854 0.67708,-0.36458 1.48437,-0.54687 0.80729,-0.1823 1.64063,-0.1823 0.85937,0 1.58854,0.15625 0.7552,0.15625 1.27604,0.52084 0.54687,0.36458 0.85937,0.9375 0.3125,0.57291 0.3125,1.40625 0,0.62499 -0.18229,1.27604 -0.18229,0.625 -0.54687,1.14583 -0.36459,0.49479 -0.91146,0.80729 -0.54688,0.3125 -1.27604,0.3125 -0.57292,0 -1.06771,-0.20833 -0.46875,-0.20834 -0.91146,-0.46875 -0.23437,-0.15625 -0.44271,-0.26042 -0.20833,-0.13021 -0.49479,-0.23437 -1.04166,0.46875 -1.97916,1.24999 -0.91146,0.75521 -1.71875,1.69271 -0.78125,0.9375 -1.45834,2.00521 -0.65104,1.06771 -1.19791,2.13541 -0.52083,1.06771 -0.91146,2.10938 -0.36458,1.01562 -0.59896,1.875 -0.18229,0.625 -0.33854,1.43229 -0.13021,0.78125 -0.13021,1.53646 0,0.52083 0.0781,0.98958 0.10416,0.46875 0.33854,0.83333 0.23437,0.36458 0.625,0.57292 0.39062,0.20833 0.96354,0.20833 0.91146,0 1.79687,-0.23437 0.91146,-0.23438 1.77084,-0.59896 0.85937,-0.36459 1.66666,-0.83334 0.83334,-0.49479 1.61458,-0.98958 0.4948,-0.3125 0.98959,-0.65104 0.49479,-0.33854 0.9375,-0.59896 0.4427,-0.26041 0.80729,-0.41666 0.39062,-0.1823 0.67708,-0.1823 0.39063,0 0.72917,0.20834 0.33854,0.18229 0.33854,0.65104 0,0.33854 -0.15625,0.75521 -0.36458,1.01562 -0.98958,1.82291 -0.625,0.80729 -1.40625,1.45834 -0.75521,0.62499 -1.64063,1.11979 -0.85937,0.49479 -1.71875,0.91145 -1.61458,0.85938 -3.28124,1.30209 -1.64063,0.41666 -2.76042,0.41666 -0.36458,0 -0.85937,-0.0781 -0.49479,-0.0781 -0.85938,-0.23438 -2.10937,-0.91145 -3.07291,-2.44791 -0.96354,-1.53646 -0.96354,-3.64583 0,-0.91146 0.1302,-1.90104 0.15625,-1.01563 0.44271,-2.10938 z"
       style="font-family:'MV Boli';-inkscape-font-specification:'MV Boli'"
       id="path17613" /><path
       d="m 238.76032,165.87805 q -0.52083,0 -1.17187,0.26042 -0.65104,0.23437 -1.30208,0.57291 -0.65104,0.33854 -1.25,0.70313 -0.59896,0.36458 -1.04167,0.57291 l -2.36979,9.375 q -0.13021,0.54687 -0.65104,0.83333 -0.52083,0.28646 -0.96354,0.28646 -1.40625,0 -1.92708,-0.54688 -0.4948,-0.57291 -0.4948,-1.48437 0,-0.39063 0.0521,-0.78125 0.0781,-0.41667 0.18229,-0.85937 l 0.10417,-0.44271 q 0.15625,-0.70313 0.41666,-1.77083 0.28646,-1.06771 0.59896,-2.23959 0.3125,-1.19791 0.625,-2.39583 0.33854,-1.22396 0.625,-2.23958 0.28646,-0.98958 0.83333,-2.94271 0.57292,-1.95312 1.25,-4.37499 0.70313,-2.42188 1.43229,-5.05209 0.75521,-2.65624 1.40625,-5.05208 0.67708,-2.39583 1.19792,-4.24478 0.52083,-1.875 0.72916,-2.76042 0.23438,-0.36458 0.72917,-0.59896 0.49479,-0.23437 1.17187,-0.23437 0.46875,0 0.96355,0.13021 0.49479,0.10416 0.88541,0.36458 0.41667,0.23437 0.67708,0.625 0.26042,0.36458 0.26042,0.85937 0,0.33854 -0.15625,0.80729 -1.5625,4.53125 -3.09895,9.40104 -1.53646,4.84375 -2.78646,9.8177 0.33854,-0.20833 1.25,-0.85937 0.91146,-0.65104 2.0052,-1.51042 1.1198,-0.85937 2.23959,-1.79687 1.11979,-0.9375 1.875,-1.69271 0.52083,-0.52083 1.04166,-1.06771 0.54688,-0.57291 1.01563,-1.0677 0.49479,-0.52084 0.85937,-0.91146 0.36458,-0.41667 0.57292,-0.65104 0.49479,-0.57292 1.0677,-0.9375 0.59896,-0.39063 1.19792,-0.39063 0.57292,0 1.04167,0.18229 0.46875,0.1823 0.80729,0.46875 0.33854,0.26042 0.52083,0.625 0.18229,0.33854 0.18229,0.65104 0,0.39063 -0.18229,0.83334 -0.18229,0.44271 -0.44271,0.85937 -0.23437,0.41667 -0.52083,0.78125 -0.28646,0.33854 -0.49479,0.52083 -0.70313,0.625 -1.58854,1.38021 -0.88542,0.72917 -1.84896,1.51042 -0.96354,0.75521 -1.97917,1.53646 -0.98958,0.7552 -1.92708,1.45833 1.64063,0.91146 2.68229,2.44791 1.06771,1.51042 1.69271,3.38542 0.625,1.84895 0.85937,3.90625 0.23438,2.05729 0.23438,4.01041 0,0.15625 -0.026,0.49479 -0.026,0.3125 -0.10417,0.59896 -0.13021,0.46875 -0.3125,0.85937 -0.18229,0.39063 -0.49479,0.65104 -0.28646,0.28646 -0.72917,0.44271 -0.41666,0.15625 -1.04166,0.15625 -0.59896,0 -1.01563,-0.20833 -0.41666,-0.20833 -0.70312,-0.54688 -0.26042,-0.33854 -0.39063,-0.7552 -0.1302,-0.41667 -0.1302,-0.83334 0,-1.30208 -0.0781,-2.68229 -0.0781,-1.40625 -0.3125,-2.70833 -0.23437,-1.30208 -0.65104,-2.44791 -0.39063,-1.17188 -1.04167,-2.00521 -0.46875,-0.59896 -0.88541,-0.9375 -0.39063,-0.33854 -0.96354,-0.33854 z m 4.94792,-11.71874 z"
       style="font-family:'MV Boli';-inkscape-font-specification:'MV Boli'"
       id="path17615" /><path
       d="m 254.15094,173.87284 q 0.20833,0 0.36458,0.0521 0.18229,0.0521 0.39063,0.13021 0.20833,0.0521 0.46875,0.10416 0.26041,0.0521 0.67708,0.0521 1.22396,0 2.70833,-0.26042 1.51042,-0.26042 2.83854,-0.67708 1.32813,-0.41667 2.26562,-0.9375 0.96355,-0.54688 1.09375,-1.11979 0.0781,-0.3125 0.0781,-0.54688 0,-0.44271 -0.44271,-0.83333 -0.41667,-0.41667 -1.06771,-0.78125 -0.65104,-0.36458 -1.40625,-0.67708 -0.7552,-0.3125 -1.40624,-0.57292 l -0.88542,-0.36458 q -0.67708,-0.26042 -1.32813,-0.625 -0.65104,-0.39063 -1.22395,-0.88542 -0.54688,-0.49479 -0.98959,-1.14583 -0.41666,-0.67708 -0.625,-1.53646 -0.10416,-0.36458 -0.18229,-0.72916 -0.0521,-0.36459 -0.0521,-0.78125 0,-0.67709 0.44271,-1.53646 0.46875,-0.88542 1.22396,-1.74479 0.78125,-0.85938 1.74479,-1.64063 0.98958,-0.78125 2.05729,-1.30208 0.78125,-0.54687 1.51041,-0.98958 0.72917,-0.44271 1.45833,-0.75521 0.75521,-0.3125 1.51042,-0.49479 0.78125,-0.18229 1.64062,-0.18229 0.78125,0 1.69271,0.0781 0.91146,0.0781 1.66667,0.36459 0.75521,0.28645 1.25,0.85937 0.52083,0.54688 0.52083,1.48438 0,0.28645 -0.0781,0.7552 -0.0781,0.46875 -0.26042,0.9375 -0.18229,0.46875 -0.44271,0.80729 -0.26042,0.33855 -0.625,0.33855 -0.59896,0 -0.98958,-0.23438 -0.39063,-0.23437 -0.70313,-0.49479 -0.3125,-0.28646 -0.65104,-0.52083 -0.33854,-0.23438 -0.83333,-0.23438 -0.59896,0 -1.40625,0.23438 -0.78125,0.20833 -1.61458,0.59895 -0.83333,0.36459 -1.64063,0.85938 -0.78125,0.49479 -1.43229,1.01562 -0.625,0.52084 -1.01562,1.04167 -0.39063,0.49479 -0.39063,0.91146 0,0.4427 0.28646,0.72916 0.28646,0.28646 0.72917,0.49479 0.57291,0.3125 1.30208,0.625 0.75521,0.3125 1.51042,0.625 0.7552,0.3125 1.45833,0.625 0.72917,0.3125 1.25,0.57292 0.70312,0.36458 1.25,0.72917 0.57291,0.33854 0.96354,0.7552 0.39062,0.41667 0.59896,0.9375 0.20833,0.52084 0.20833,1.22396 0,0.33854 -0.0521,0.67708 -0.0521,0.33854 -0.15625,0.78125 -0.0781,0.39063 -0.28646,0.91146 -0.18229,0.52083 -0.41667,1.04167 -0.20833,0.49479 -0.44271,0.91145 -0.23437,0.39063 -0.39062,0.52084 -1.01563,0.9375 -2.39583,1.77083 -1.38021,0.80729 -2.89063,1.43229 -1.48437,0.59896 -2.99479,0.96354 -1.48437,0.36458 -2.73437,0.36458 -0.625,0 -1.38021,-0.23437 -0.7552,-0.26042 -1.40625,-0.65104 -0.625,-0.41667 -1.0677,-0.9375 -0.41667,-0.52083 -0.41667,-1.04167 0,-0.26041 0.15625,-0.57291 0.15625,-0.33854 0.39062,-0.59896 0.23438,-0.28646 0.4948,-0.46875 0.28645,-0.20833 0.52083,-0.20833 z"
       style="font-family:'MV Boli';-inkscape-font-specification:'MV Boli'"
       id="path17617" /></g></g></svg>
