<?xml version="1.0" encoding="UTF-8" standalone="no"?>
<!-- Generator: Adobe Illustrator 16.0.3, SVG Export Plug-In . SVG Version: 6.00 Build 0)  -->

<svg
   version="1.1"
   id="Layer_1"
   x="0px"
   y="0px"
   width="568.92902"
   height="166.98958"
   viewBox="-1 -1 568.929 166.98958"
   enable-background="new -1 -1 568.929 116.145"
   xml:space="preserve"
   sodipodi:docname="system.svg"
   inkscape:version="1.1.1 (3bf5ae0d25, 2021-09-20)"
   xmlns:inkscape="http://www.inkscape.org/namespaces/inkscape"
   xmlns:sodipodi="http://sodipodi.sourceforge.net/DTD/sodipodi-0.dtd"
   xmlns="http://www.w3.org/2000/svg"
   xmlns:svg="http://www.w3.org/2000/svg"><defs
   id="defs240">
	
	
	
		<linearGradient
   id="path14_1_"
   gradientUnits="userSpaceOnUse"
   x1="308.14401"
   y1="1410.9641"
   x2="308.14401"
   y2="1515.9807"
   gradientTransform="translate(-24.4248,-1406.4004)">
		<stop
   offset="0"
   style="stop-color:#D9DDE9"
   id="stop6" />
		<stop
   offset="0.39"
   style="stop-color:#777489"
   id="stop8" />
		<stop
   offset="0.98"
   style="stop-color:#D9DDE9"
   id="stop10" />
	</linearGradient>
	
	
	
	
	
	
	
	
	
	
</defs><sodipodi:namedview
   id="namedview238"
   pagecolor="#ffffff"
   bordercolor="#666666"
   borderopacity="1.0"
   inkscape:pageshadow="2"
   inkscape:pageopacity="0.0"
   inkscape:pagecheckerboard="0"
   showgrid="false"
   inkscape:zoom="2.550406"
   inkscape:cx="284.46451"
   inkscape:cy="58.029975"
   inkscape:window-width="3840"
   inkscape:window-height="2066"
   inkscape:window-x="-11"
   inkscape:window-y="-11"
   inkscape:window-maximized="1"
   inkscape:current-layer="Layer_1" />
<g
   id="g508"><polygon
     points="238.374,-1 219.347,31.721 34.106,31.721 -1,51.605 -1,95.259 33.88,115.018 34.108,115.145 532.825,115.145 567.675,95.404 567.929,95.259 567.929,51.607 533.056,31.853 532.827,31.721 348.343,31.721 329.321,-1 "
     id="polygon2" /><polygon
     fill="#ced1dd"
     points="566.929,94.677 566.929,52.19 532.56,32.72 347.767,32.72 328.744,0 238.948,0 219.923,32.72 34.37,32.72 0,52.188 0,94.677 34.37,114.145 532.56,114.145 "
     id="polygon4" /><path
     id="path14"
     fill="url(#path14_1_)"
     d="M 344.724,37.286 325.701,4.564 h -0.252 -83.458 -0.25 L 222.716,37.287 H 36.777 L 4.565,55.36 V 91.508 L 36.777,109.58 H 530.662 L 562.873,91.508 V 55.36 L 530.662,37.288 Z"
     style="fill:url(#path14_1_)" /><path
     id="path16"
     fill="#202066"
     d="m 309.46,13.469 -7.131,21.726 h 3.521 l 7.146,-20.979 c 0.26,-0.959 1.043,-1.659 1.963,-1.659 0.931,0 1.713,0.7 1.974,1.659 l 6.041,17.746 h -9.479 v 3.232 H 327.6 l -7.132,-21.726 c -0.684,-2.396 -2.893,-4.146 -5.51,-4.146 -2.607,-10e-4 -4.812,1.749 -5.498,4.147 z m 4.178,13.492 1.248,-3.706 1.301,3.706 z m -0.517,-10.638 -6.387,18.872 h 4.117 l 2.643,-7.822 v 3.697 h 8.295 l -4.926,-14.747 c -0.25,-0.821 -0.996,-3.182 -1.873,-3.182 -0.881,0 -1.627,2.36 -1.869,3.182 z m -22.549,-2.885 h 12.344 v -3.53 h -12.639 c -3.408,0 -6.172,2.771 -6.172,6.18 v 12.936 c 0,3.409 2.764,6.172 6.172,6.172 h 12.639 v -16.47 h -9.992 v 3.234 h 6.461 v 9.702 h -8.813 c -1.627,0 -2.936,-1.315 -2.936,-2.938 v -12.35 c -0.002,-1.619 1.309,-2.936 2.936,-2.936 z m 2.351,9.406 v 3.531 h 2.055 v 0.882 h -2.055 c -0.486,0 -0.883,-0.396 -0.883,-0.882 v -7.648 c 0,-0.486 0.396,-0.883 0.883,-0.883 h 9.992 V 14.32 h -11.461 c -1.627,0 -2.945,1.316 -2.945,2.938 v 10.585 c 0,1.622 1.318,2.938 2.945,2.938 h 7.055 v -7.938 z m -22.631,-9.406 h 12.344 v -3.53 h -12.641 c -3.408,0 -6.17,2.771 -6.17,6.18 V 28.88 c 0,3.408 2.762,6.179 6.17,6.179 h 12.641 v -3.531 h -12.344 c -1.621,0 -2.938,-1.314 -2.938,-2.938 V 16.376 c 0,-1.621 1.317,-2.938 2.938,-2.938 z m 9.695,8.523 v -3.234 h -8.227 c 0,-0.486 0.395,-0.883 0.883,-0.883 h 9.992 V 14.32 h -11.461 c -1.621,0 -2.936,1.316 -2.936,2.938 v 4.703 z m 0,1.179 v 3.234 h -8.227 c 0,0.485 0.395,0.882 0.883,0.882 h 9.992 v 3.522 h -11.461 c -1.621,0 -2.936,-1.314 -2.936,-2.938 v -4.703 z m -30.203,4.407 h -7.412 v 3.233 h 11.314 0.145 c 2.123,-0.076 3.82,-1.827 3.82,-3.966 0,-2.189 -1.773,-3.972 -3.965,-3.972 h -4.459 c -1.803,-0.686 -3.334,-2.474 -3.334,-4.559 0,-2.679 2.467,-4.848 5.145,-4.848 h 11.027 V 9.907 h -11.469 c -4.541,0 -8.225,3.69 -8.225,8.233 0,4.55 3.979,8.234 8.521,8.234 v -0.038 l 0.023,0.038 h 2.625 c 0.32,0 0.586,0.259 0.586,0.586 0,0.326 -0.268,0.586 -0.586,0.586 h -3.756 z m 4.862,-9.993 h 7.42 V 14.32 h -11.316 -0.152 c -2.123,0.076 -3.818,1.827 -3.818,3.966 0,2.198 1.779,3.973 3.973,3.973 h 4.459 c 1.803,0.692 3.326,2.473 3.326,4.558 0,2.68 -2.465,4.849 -5.146,4.849 h -11.018 v 3.53 h 11.459 c 4.545,0 8.234,-3.683 8.234,-8.232 0,-4.543 -3.979,-8.234 -8.523,-8.234 v 0.046 l -0.029,-0.045 h -2.619 c -0.328,0 -0.586,-0.259 -0.586,-0.586 0,-0.319 0.258,-0.586 0.586,-0.586 z" /><g
     id="g43">
		
			<linearGradient
   id="polygon37_2_"
   gradientUnits="userSpaceOnUse"
   x1="220.79491"
   y1="1450.0256"
   x2="270.3067"
   y2="1499.5374"
   gradientTransform="translate(-24.4248,-1406.4004)">
			<stop
   offset="0"
   style="stop-color:#D9DDE9"
   id="stop15" />
			<stop
   offset="0.39"
   style="stop-color:#777489"
   id="stop17" />
			<stop
   offset="0.98"
   style="stop-color:#D9DDE9"
   id="stop19" />
		</linearGradient>
		<polygon
   id="polygon37"
   fill="url(#polygon37_2_)"
   points="209.429,61.171 209.429,99.606 191.86,99.606 191.86,47.433 210.161,47.433 243.101,66.173 243.101,47.433 260.669,47.433 260.669,99.606 243.101,99.606 243.101,80.333 "
   style="fill:url(#polygon37_2_)" />
		
			<linearGradient
   id="polygon37_3_"
   gradientUnits="userSpaceOnUse"
   x1="221.6904"
   y1="1450.804"
   x2="269.7215"
   y2="1498.8352"
   gradientTransform="translate(-24.4248,-1406.4004)">
			<stop
   offset="0"
   style="stop-color:#000000"
   id="stop23" />
			<stop
   offset="0.11"
   style="stop-color:#181C4E"
   id="stop25" />
			<stop
   offset="0.22"
   style="stop-color:#181818"
   id="stop27" />
			<stop
   offset="0.34"
   style="stop-color:#181C4E"
   id="stop29" />
			<stop
   offset="0.47"
   style="stop-color:#000000"
   id="stop31" />
			<stop
   offset="0.59"
   style="stop-color:#181C4E"
   id="stop33" />
			<stop
   offset="0.72"
   style="stop-color:#000000"
   id="stop35" />
			<stop
   offset="0.84"
   style="stop-color:#181C4E"
   id="stop37" />
			<stop
   offset="0.98"
   style="stop-color:#000000"
   id="stop39" />
		</linearGradient>
		<polygon
   id="polygon37_1_"
   fill="url(#polygon37_3_)"
   points="209.903,61.45 209.903,98.649 192.83,98.649 192.83,48.156 210.614,48.156 242.626,66.29 242.626,48.156 259.698,48.156 259.698,98.649 242.626,98.649 242.626,79.995 "
   style="fill:url(#polygon37_3_)" />
	</g><g
     id="g73">
		
			<linearGradient
   id="rect58_2_"
   gradientUnits="userSpaceOnUse"
   x1="449.50931"
   y1="1461.4338"
   x2="499.7514"
   y2="1514.8802"
   gradientTransform="translate(-24.4248,-1406.4004)">
			<stop
   offset="0"
   style="stop-color:#D9DDE9"
   id="stop45" />
			<stop
   offset="0.39"
   style="stop-color:#777489"
   id="stop47" />
			<stop
   offset="0.98"
   style="stop-color:#D9DDE9"
   id="stop49" />
		</linearGradient>
		<rect
   id="rect58"
   x="433.25101"
   y="47.179001"
   fill="url(#rect58_2_)"
   width="18.261999"
   height="52.508999"
   style="fill:url(#rect58_2_)" />
		
			<linearGradient
   id="rect58_3_"
   gradientUnits="userSpaceOnUse"
   x1="450.21039"
   y1="1462.1799"
   x2="498.41599"
   y2="1513.46"
   gradientTransform="translate(-24.4248,-1406.4004)">
			<stop
   offset="0"
   style="stop-color:#000000"
   id="stop53" />
			<stop
   offset="0.11"
   style="stop-color:#181C4E"
   id="stop55" />
			<stop
   offset="0.22"
   style="stop-color:#181818"
   id="stop57" />
			<stop
   offset="0.34"
   style="stop-color:#181C4E"
   id="stop59" />
			<stop
   offset="0.47"
   style="stop-color:#000000"
   id="stop61" />
			<stop
   offset="0.59"
   style="stop-color:#181C4E"
   id="stop63" />
			<stop
   offset="0.72"
   style="stop-color:#000000"
   id="stop65" />
			<stop
   offset="0.84"
   style="stop-color:#181C4E"
   id="stop67" />
			<stop
   offset="0.98"
   style="stop-color:#000000"
   id="stop69" />
		</linearGradient>
		<rect
   id="rect58_1_"
   x="433.716"
   y="48.155998"
   fill="url(#rect58_3_)"
   width="17.332001"
   height="50.558998"
   style="fill:url(#rect58_3_)" />
	</g><g
     id="g103">
		
			<linearGradient
   id="polygon79_2_"
   gradientUnits="userSpaceOnUse"
   x1="300.49951"
   y1="1450.3645"
   x2="350.30829"
   y2="1500.1731"
   gradientTransform="translate(-24.4248,-1406.4004)">
			<stop
   offset="0"
   style="stop-color:#D9DDE9"
   id="stop75" />
			<stop
   offset="0.39"
   style="stop-color:#777489"
   id="stop77" />
			<stop
   offset="0.98"
   style="stop-color:#D9DDE9"
   id="stop79" />
		</linearGradient>
		<polygon
   id="polygon79"
   fill="url(#polygon79_2_)"
   points="309.669,78.684 290.917,78.684 290.917,89.186 339.673,89.186 322.421,99.688 272.915,99.688 272.915,59.182 290.917,47.179 338.173,47.179 320.921,57.68 290.917,57.68 290.917,68.182 326.921,68.182 "
   style="fill:url(#polygon79_2_)" />
		
			<linearGradient
   id="polygon79_3_"
   gradientUnits="userSpaceOnUse"
   x1="301.6196"
   y1="1451.4602"
   x2="349.57809"
   y2="1499.4187"
   gradientTransform="translate(-24.4248,-1406.4004)">
			<stop
   offset="0"
   style="stop-color:#000000"
   id="stop83" />
			<stop
   offset="0.11"
   style="stop-color:#181C4E"
   id="stop85" />
			<stop
   offset="0.22"
   style="stop-color:#181818"
   id="stop87" />
			<stop
   offset="0.34"
   style="stop-color:#181C4E"
   id="stop89" />
			<stop
   offset="0.47"
   style="stop-color:#000000"
   id="stop91" />
			<stop
   offset="0.59"
   style="stop-color:#181C4E"
   id="stop93" />
			<stop
   offset="0.72"
   style="stop-color:#000000"
   id="stop95" />
			<stop
   offset="0.84"
   style="stop-color:#181C4E"
   id="stop97" />
			<stop
   offset="0.98"
   style="stop-color:#000000"
   id="stop99" />
		</linearGradient>
		<polygon
   id="polygon79_1_"
   fill="url(#polygon79_3_)"
   points="309.544,78.49 291.488,78.49 291.488,88.6 338.433,88.6 321.824,98.714 274.153,98.714 274.153,59.712 291.488,48.156 336.99,48.156 320.378,58.266 291.488,58.266 291.488,68.378 326.156,68.378 "
   style="fill:url(#polygon79_3_)" />
	</g><g
     id="g133">
		
			<linearGradient
   id="polygon100_2_"
   gradientUnits="userSpaceOnUse"
   x1="141.2285"
   y1="1450.637"
   x2="190.76109"
   y2="1500.1694"
   gradientTransform="translate(-24.4248,-1406.4004)">
			<stop
   offset="0"
   style="stop-color:#D9DDE9"
   id="stop105" />
			<stop
   offset="0.39"
   style="stop-color:#777489"
   id="stop107" />
			<stop
   offset="0.98"
   style="stop-color:#D9DDE9"
   id="stop109" />
		</linearGradient>
		<polygon
   id="polygon100"
   fill="url(#polygon100_2_)"
   points="150.21,78.762 131.563,78.762 131.563,89.204 180.047,89.204 162.89,99.647 113.66,99.647 113.66,59.368 131.563,47.433 178.555,47.433 161.399,57.878 131.563,57.878 131.563,68.317 167.366,68.317 "
   style="fill:url(#polygon100_2_)" />
		
			<linearGradient
   id="polygon100_3_"
   gradientUnits="userSpaceOnUse"
   x1="142.0806"
   y1="1451.468"
   x2="190.20641"
   y2="1499.5938"
   gradientTransform="translate(-24.4248,-1406.4004)">
			<stop
   offset="0"
   style="stop-color:#000000"
   id="stop113" />
			<stop
   offset="0.11"
   style="stop-color:#181C4E"
   id="stop115" />
			<stop
   offset="0.22"
   style="stop-color:#181818"
   id="stop117" />
			<stop
   offset="0.34"
   style="stop-color:#181C4E"
   id="stop119" />
			<stop
   offset="0.47"
   style="stop-color:#000000"
   id="stop121" />
			<stop
   offset="0.59"
   style="stop-color:#181C4E"
   id="stop123" />
			<stop
   offset="0.72"
   style="stop-color:#000000"
   id="stop125" />
			<stop
   offset="0.84"
   style="stop-color:#181C4E"
   id="stop127" />
			<stop
   offset="0.98"
   style="stop-color:#000000"
   id="stop129" />
		</linearGradient>
		<polygon
   id="polygon100_1_"
   fill="url(#polygon100_3_)"
   points="150.113,78.615 131.996,78.615 131.996,88.76 179.104,88.76 162.436,98.905 114.601,98.905 114.601,59.768 131.996,48.174 177.654,48.174 160.984,58.319 131.996,58.319 131.996,68.468 166.783,68.468 "
   style="fill:url(#polygon100_3_)" />
	</g><g
     id="g163">
		
			<linearGradient
   id="polygon121_2_"
   gradientUnits="userSpaceOnUse"
   x1="64.992203"
   y1="1454.7668"
   x2="113.8675"
   y2="1503.6422"
   gradientTransform="translate(-24.4248,-1406.4004)">
			<stop
   offset="0"
   style="stop-color:#D9DDE9"
   id="stop135" />
			<stop
   offset="0.39"
   style="stop-color:#777489"
   id="stop137" />
			<stop
   offset="0.98"
   style="stop-color:#D9DDE9"
   id="stop139" />
		</linearGradient>
		<polygon
   id="polygon121"
   fill="url(#polygon121_2_)"
   points="47.47,57.882 47.47,89.219 81.048,89.219 81.048,76.534 60.155,76.534 77.317,66.089 98.958,66.089 98.958,87.727 81.048,99.667 29.562,99.667 29.562,59.372 47.47,47.433 101.942,47.433 84.779,57.882 "
   style="fill:url(#polygon121_2_)" />
		
			<linearGradient
   id="polygon121_3_"
   gradientUnits="userSpaceOnUse"
   x1="65.686996"
   y1="1455.4641"
   x2="113.1985"
   y2="1502.9756"
   gradientTransform="translate(-24.4248,-1406.4004)">
			<stop
   offset="0"
   style="stop-color:#000000"
   id="stop143" />
			<stop
   offset="0.11"
   style="stop-color:#181C4E"
   id="stop145" />
			<stop
   offset="0.22"
   style="stop-color:#181818"
   id="stop147" />
			<stop
   offset="0.34"
   style="stop-color:#181C4E"
   id="stop149" />
			<stop
   offset="0.47"
   style="stop-color:#000000"
   id="stop151" />
			<stop
   offset="0.59"
   style="stop-color:#181C4E"
   id="stop153" />
			<stop
   offset="0.72"
   style="stop-color:#000000"
   id="stop155" />
			<stop
   offset="0.84"
   style="stop-color:#181C4E"
   id="stop157" />
			<stop
   offset="0.98"
   style="stop-color:#000000"
   id="stop159" />
		</linearGradient>
		<polygon
   id="polygon121_1_"
   fill="url(#polygon121_3_)"
   points="47.971,58.311 47.971,88.776 80.611,88.776 80.611,76.444 60.302,76.444 76.985,66.29 98.021,66.29 98.021,87.325 80.611,98.93 30.563,98.93 30.563,59.76 47.971,48.156 100.922,48.156 84.238,58.311 "
   style="fill:url(#polygon121_3_)" />
	</g><g
     id="g195">
		<polygon
   fill="#c2c4d2"
   points="402.304,89.034 402.304,78.382 350.558,78.382 350.558,57.835 368.06,47.179 422.851,47.179 405.349,57.835 369.582,57.835 369.582,67.725 422.089,67.725 422.089,89.034 404.587,99.688 350.558,99.688 368.06,89.034 "
   id="polygon165" />
		
			<linearGradient
   id="polygon142_2_"
   gradientUnits="userSpaceOnUse"
   x1="350.52289"
   y1="-651.39972"
   x2="422.81589"
   y2="-651.39972"
   gradientTransform="matrix(1,0,0,-1,0.0352,-577.9663)">
			<stop
   offset="0"
   style="stop-color:#D9DDE9"
   id="stop167" />
			<stop
   offset="0.39"
   style="stop-color:#777489"
   id="stop169" />
			<stop
   offset="0.98"
   style="stop-color:#D9DDE9"
   id="stop171" />
		</linearGradient>
		<polygon
   id="polygon142"
   fill="url(#polygon142_2_)"
   points="368.06,47.179 422.851,47.179 405.349,57.835 369.582,57.835 369.582,67.725 422.089,67.725 422.089,89.034 404.587,99.688 350.558,99.688 368.06,89.034 402.304,89.034 402.304,78.382 350.558,78.382 350.558,57.835 "
   style="fill:url(#polygon142_2_)" />
		
			<linearGradient
   id="polygon142_3_"
   gradientUnits="userSpaceOnUse"
   x1="381.4263"
   y1="1450.1321"
   x2="430.44299"
   y2="1499.1486"
   gradientTransform="translate(-24.4248,-1406.4004)">
			<stop
   offset="0"
   style="stop-color:#000000"
   id="stop175" />
			<stop
   offset="0.11"
   style="stop-color:#181C4E"
   id="stop177" />
			<stop
   offset="0.22"
   style="stop-color:#181818"
   id="stop179" />
			<stop
   offset="0.34"
   style="stop-color:#181C4E"
   id="stop181" />
			<stop
   offset="0.47"
   style="stop-color:#000000"
   id="stop183" />
			<stop
   offset="0.59"
   style="stop-color:#181C4E"
   id="stop185" />
			<stop
   offset="0.72"
   style="stop-color:#000000"
   id="stop187" />
			<stop
   offset="0.84"
   style="stop-color:#181C4E"
   id="stop189" />
			<stop
   offset="0.98"
   style="stop-color:#000000"
   id="stop191" />
		</linearGradient>
		<polygon
   id="polygon142_1_"
   fill="url(#polygon142_3_)"
   points="368.753,48.156 421.507,48.156 404.656,58.413 370.218,58.413 370.218,67.938 420.775,67.938 420.775,88.454 403.923,98.714 351.902,98.714 368.753,88.454 401.724,88.454 401.724,78.198 351.902,78.198 351.902,58.413 "
   style="fill:url(#polygon142_3_)" />
	</g><g
     id="g227">
		<polygon
   fill="#c2c4d2"
   points="513.662,89.034 513.662,78.382 461.914,78.382 461.914,57.835 479.417,47.179 534.207,47.179 516.705,57.835 480.939,57.835 480.939,67.725 533.447,67.725 533.447,89.034 515.945,99.688 461.914,99.688 479.417,89.034 "
   id="polygon197" />
		
			<linearGradient
   id="polygon163_2_"
   gradientUnits="userSpaceOnUse"
   x1="491.6362"
   y1="1448.9846"
   x2="542.54639"
   y2="1499.8948"
   gradientTransform="translate(-24.4248,-1406.4004)">
			<stop
   offset="0"
   style="stop-color:#D9DDE9"
   id="stop199" />
			<stop
   offset="0.39"
   style="stop-color:#777489"
   id="stop201" />
			<stop
   offset="0.98"
   style="stop-color:#D9DDE9"
   id="stop203" />
		</linearGradient>
		<polygon
   id="polygon163"
   fill="url(#polygon163_2_)"
   points="479.417,47.179 534.207,47.179 516.705,57.835 480.939,57.835 480.939,67.725 533.447,67.725 533.447,89.034 515.945,99.688 461.914,99.688 479.417,89.034 513.662,89.034 513.662,78.382 461.914,78.382 461.914,57.835 "
   style="fill:url(#polygon163_2_)" />
		
			<linearGradient
   id="polygon163_3_"
   gradientUnits="userSpaceOnUse"
   x1="492.78171"
   y1="1450.1321"
   x2="541.79901"
   y2="1499.1493"
   gradientTransform="translate(-24.4248,-1406.4004)">
			<stop
   offset="0"
   style="stop-color:#000000"
   id="stop207" />
			<stop
   offset="0.11"
   style="stop-color:#181C4E"
   id="stop209" />
			<stop
   offset="0.22"
   style="stop-color:#181818"
   id="stop211" />
			<stop
   offset="0.34"
   style="stop-color:#181C4E"
   id="stop213" />
			<stop
   offset="0.47"
   style="stop-color:#000000"
   id="stop215" />
			<stop
   offset="0.59"
   style="stop-color:#181C4E"
   id="stop217" />
			<stop
   offset="0.72"
   style="stop-color:#000000"
   id="stop219" />
			<stop
   offset="0.84"
   style="stop-color:#181C4E"
   id="stop221" />
			<stop
   offset="0.98"
   style="stop-color:#000000"
   id="stop223" />
		</linearGradient>
		<polygon
   id="polygon163_1_"
   fill="url(#polygon163_3_)"
   points="480.111,48.156 532.865,48.156 516.011,58.413 481.576,58.413 481.576,67.938 532.132,67.938 532.132,88.454 515.279,98.714 463.257,98.714 480.111,88.454 513.082,88.454 513.082,78.198 463.257,78.198 463.257,58.413 "
   style="fill:url(#polygon163_3_)" />
	</g><g
     transform="matrix(1.963267,-0.64630396,0.71457078,1.7757055,-85.533089,-64.179415)"
     style="font-size:53.3333px;line-height:1.25;fill:#d61616;stroke:#000000"
     id="g41">
      <path
   d="m 139.67184,177.70096 q 0,-0.28646 0.0781,-0.75521 0.10417,-0.49479 0.23438,-0.98958 0.1302,-0.52083 0.26041,-0.98958 0.15625,-0.46875 0.23438,-0.75521 L 151.026,139.60202 q 0.1302,-0.18229 0.28645,-0.3125 0.13021,-0.1302 0.33855,-0.20833 0.23437,-0.10417 0.54687,-0.10417 h 0.44271 q 0.57292,0 0.96354,0.20834 0.39062,0.18229 0.625,0.52083 0.23437,0.3125 0.3125,0.75521 0.10417,0.41666 0.10417,0.91146 0,0.41666 -0.0781,0.88541 -0.0521,0.44271 -0.13021,0.88542 -0.0781,0.41666 -0.18229,0.78125 -0.0781,0.36458 -0.13021,0.57291 l -5.41666,18.48958 2.47396,-0.23438 q 4.14062,-0.91146 8.43749,-1.875 4.32292,-0.98958 8.46354,-1.90104 0.46875,-0.23437 0.83333,-0.96354 0.36458,-0.72917 0.70313,-1.90104 0.36458,-1.17187 0.78125,-2.73437 0.41666,-1.58854 1.01562,-3.51563 l 0.54687,-1.79687 q 0.33855,-1.30208 0.59896,-2.65625 0.28646,-1.38021 0.67709,-2.5 0.39062,-1.11979 0.98958,-1.82291 0.59896,-0.72917 1.53646,-0.72917 1.32812,0 2.05729,0.85938 0.72916,0.83333 0.72916,2.10937 0,0.80729 -0.625,2.70833 -0.59896,1.90104 -1.51041,4.63541 -0.33854,1.01563 -0.72917,2.08334 -0.39062,1.0677 -0.72917,2.05729 -0.3125,0.96354 -0.52083,1.79687 -0.20833,0.80729 -0.20833,1.30208 0,0.46875 0.13021,0.9375 0.1302,0.44271 0.1302,0.96354 0,1.17188 -0.625,1.95313 -0.62499,0.78125 -1.71874,1.58854 -0.0521,0.20833 -0.15625,0.65104 -0.0781,0.44271 -0.20834,0.91146 l -0.33854,1.32812 q -0.36458,1.43229 -0.625,2.86458 -0.23437,1.43229 -0.44271,2.83854 -0.18229,1.40625 -0.41666,2.8125 -0.20834,1.40625 -0.54688,2.78646 -0.13021,0.52083 -0.46875,0.9375 -0.3125,0.39062 -0.75521,0.67708 -0.41666,0.28646 -0.88541,0.44271 -0.46875,0.15625 -0.88542,0.15625 -0.625,0 -1.01562,-0.28646 -0.39063,-0.28646 -0.625,-0.67708 -0.20833,-0.39063 -0.28646,-0.80729 -0.0781,-0.41667 -0.0781,-0.70313 0,-0.3125 0.0781,-1.01562 0.10417,-0.72917 0.26042,-1.69271 0.15625,-0.96354 0.36458,-2.08333 0.20833,-1.11979 0.41667,-2.26563 0.49479,-2.65624 1.14583,-5.80728 h -0.18229 q -0.67709,0 -1.45833,0.15625 -0.78125,0.1302 -1.875,0.39062 -0.4948,0.15625 -1.48438,0.41667 -0.96354,0.26041 -2.21354,0.59896 -1.25,0.33854 -2.70833,0.72916 -1.43229,0.39063 -2.86458,0.78125 l -7.05729,1.92708 q -0.49479,1.01563 -0.9375,2.21354 -0.41666,1.17188 -0.78125,2.39584 -0.36458,1.19791 -0.67708,2.36979 -0.28646,1.17187 -0.54688,2.21354 -0.0781,0.28645 -0.33854,0.625 -0.23437,0.33854 -0.57291,0.625 -0.3125,0.28645 -0.67709,0.46875 -0.33854,0.18229 -0.65104,0.18229 -0.57291,0 -0.96354,-0.26042 -0.36458,-0.23437 -0.59896,-0.65104 -0.23437,-0.39063 -0.33854,-0.91146 -0.0781,-0.49479 -0.0781,-0.98958 z"
   style="font-family:'MV Boli';-inkscape-font-specification:'MV Boli'"
   id="path17609" />
      <path
   d="m 191.96347,177.36242 q 0,-0.75521 0.1823,-1.79688 0.18229,-1.0677 0.18229,-2.6302 -0.85938,0.625 -1.90104,1.48437 -1.04167,0.85938 -2.16146,1.64062 -1.11979,0.78125 -2.23958,1.32813 -1.09375,0.52083 -2.05729,0.52083 -0.78125,0 -1.48438,-0.23437 -0.70312,-0.23438 -1.19791,-0.625 -1.38021,-1.09375 -2.00521,-2.1875 -0.59896,-1.09375 -0.59896,-2.55208 0,-0.65104 0.10417,-1.35417 0.13021,-0.70312 0.36458,-1.61458 0.98958,-4.11458 3.38542,-7.60416 2.42187,-3.51563 5.98958,-5.98958 1.3802,-0.96354 2.76041,-1.22396 1.38021,-0.28646 2.73437,-0.28646 0.59896,0 1.32813,0.0781 0.75521,0.0781 1.35416,0.15625 0.59896,-0.13021 0.96355,-0.1823 0.39062,-0.0521 0.80729,-0.0521 0.78125,0 1.30208,0.20833 0.52083,0.20834 0.83333,0.57292 0.3125,0.33854 0.44271,0.80729 0.15625,0.44271 0.15625,0.9375 0,0.67708 -0.20833,1.30208 -0.20834,0.59896 -0.41667,1.22396 l -3.4375,13.72395 q -0.10416,1.11979 -0.18229,2.05729 -0.0781,0.9375 -0.3125,1.74479 -0.0781,0.23438 -0.20833,0.59896 -0.10417,0.33854 -0.36459,0.67708 -0.26041,0.3125 -0.65104,0.54688 -0.39062,0.23437 -1.01562,0.23437 -0.80729,0 -1.30208,-0.10416 -0.46875,-0.10417 -0.72917,-0.28646 -0.26042,-0.20833 -0.33854,-0.46875 -0.0781,-0.28646 -0.0781,-0.65104 z m -8.64582,-7.86458 q -0.10417,0.36458 -0.23438,1.04166 -0.10417,0.67709 -0.10417,1.35417 0,0.70313 0.20834,1.27604 0.20833,0.54688 0.91146,0.54688 1.09374,0 2.03124,-0.46875 0.96355,-0.49479 1.79688,-1.17188 1.11979,-0.91146 2.26562,-2.03125 1.17188,-1.14583 2.1875,-2.39583 1.04167,-1.25 1.82292,-2.55208 0.80729,-1.32812 1.17187,-2.63021 0.20833,-0.75521 0.33854,-1.74479 0.15625,-0.98958 0.15625,-1.77083 0,-0.33854 -0.15625,-0.65104 -0.15625,-0.33854 -0.59896,-0.33854 -1.27604,0 -2.57812,0.49479 -1.27604,0.49479 -2.47396,1.32812 -1.19791,0.83334 -2.29166,1.97917 -1.06771,1.11979 -1.95313,2.42187 -0.88541,1.27604 -1.53645,2.65625 -0.625,1.35417 -0.96354,2.65625 z"
   style="font-family:'MV Boli';-inkscape-font-specification:'MV Boli'"
   id="path17611" />
      <path
   d="m 205.24471,168.29992 q 0.49479,-2.0052 1.45833,-4.1927 0.98959,-2.1875 2.3698,-4.21875 1.3802,-2.05729 3.12499,-3.77604 1.77084,-1.74479 3.85417,-2.83854 0.67708,-0.36458 1.48437,-0.54687 0.80729,-0.1823 1.64063,-0.1823 0.85937,0 1.58854,0.15625 0.7552,0.15625 1.27604,0.52084 0.54687,0.36458 0.85937,0.9375 0.3125,0.57291 0.3125,1.40625 0,0.62499 -0.18229,1.27604 -0.18229,0.625 -0.54687,1.14583 -0.36459,0.49479 -0.91146,0.80729 -0.54688,0.3125 -1.27604,0.3125 -0.57292,0 -1.06771,-0.20833 -0.46875,-0.20834 -0.91146,-0.46875 -0.23437,-0.15625 -0.44271,-0.26042 -0.20833,-0.13021 -0.49479,-0.23437 -1.04166,0.46875 -1.97916,1.24999 -0.91146,0.75521 -1.71875,1.69271 -0.78125,0.9375 -1.45834,2.00521 -0.65104,1.06771 -1.19791,2.13541 -0.52083,1.06771 -0.91146,2.10938 -0.36458,1.01562 -0.59896,1.875 -0.18229,0.625 -0.33854,1.43229 -0.13021,0.78125 -0.13021,1.53646 0,0.52083 0.0781,0.98958 0.10416,0.46875 0.33854,0.83333 0.23437,0.36458 0.625,0.57292 0.39062,0.20833 0.96354,0.20833 0.91146,0 1.79687,-0.23437 0.91146,-0.23438 1.77084,-0.59896 0.85937,-0.36459 1.66666,-0.83334 0.83334,-0.49479 1.61458,-0.98958 0.4948,-0.3125 0.98959,-0.65104 0.49479,-0.33854 0.9375,-0.59896 0.4427,-0.26041 0.80729,-0.41666 0.39062,-0.1823 0.67708,-0.1823 0.39063,0 0.72917,0.20834 0.33854,0.18229 0.33854,0.65104 0,0.33854 -0.15625,0.75521 -0.36458,1.01562 -0.98958,1.82291 -0.625,0.80729 -1.40625,1.45834 -0.75521,0.62499 -1.64063,1.11979 -0.85937,0.49479 -1.71875,0.91145 -1.61458,0.85938 -3.28124,1.30209 -1.64063,0.41666 -2.76042,0.41666 -0.36458,0 -0.85937,-0.0781 -0.49479,-0.0781 -0.85938,-0.23438 -2.10937,-0.91145 -3.07291,-2.44791 -0.96354,-1.53646 -0.96354,-3.64583 0,-0.91146 0.1302,-1.90104 0.15625,-1.01563 0.44271,-2.10938 z"
   style="font-family:'MV Boli';-inkscape-font-specification:'MV Boli'"
   id="path17613" />
      <path
   d="m 238.76032,165.87805 q -0.52083,0 -1.17187,0.26042 -0.65104,0.23437 -1.30208,0.57291 -0.65104,0.33854 -1.25,0.70313 -0.59896,0.36458 -1.04167,0.57291 l -2.36979,9.375 q -0.13021,0.54687 -0.65104,0.83333 -0.52083,0.28646 -0.96354,0.28646 -1.40625,0 -1.92708,-0.54688 -0.4948,-0.57291 -0.4948,-1.48437 0,-0.39063 0.0521,-0.78125 0.0781,-0.41667 0.18229,-0.85937 l 0.10417,-0.44271 q 0.15625,-0.70313 0.41666,-1.77083 0.28646,-1.06771 0.59896,-2.23959 0.3125,-1.19791 0.625,-2.39583 0.33854,-1.22396 0.625,-2.23958 0.28646,-0.98958 0.83333,-2.94271 0.57292,-1.95312 1.25,-4.37499 0.70313,-2.42188 1.43229,-5.05209 0.75521,-2.65624 1.40625,-5.05208 0.67708,-2.39583 1.19792,-4.24478 0.52083,-1.875 0.72916,-2.76042 0.23438,-0.36458 0.72917,-0.59896 0.49479,-0.23437 1.17187,-0.23437 0.46875,0 0.96355,0.13021 0.49479,0.10416 0.88541,0.36458 0.41667,0.23437 0.67708,0.625 0.26042,0.36458 0.26042,0.85937 0,0.33854 -0.15625,0.80729 -1.5625,4.53125 -3.09895,9.40104 -1.53646,4.84375 -2.78646,9.8177 0.33854,-0.20833 1.25,-0.85937 0.91146,-0.65104 2.0052,-1.51042 1.1198,-0.85937 2.23959,-1.79687 1.11979,-0.9375 1.875,-1.69271 0.52083,-0.52083 1.04166,-1.06771 0.54688,-0.57291 1.01563,-1.0677 0.49479,-0.52084 0.85937,-0.91146 0.36458,-0.41667 0.57292,-0.65104 0.49479,-0.57292 1.0677,-0.9375 0.59896,-0.39063 1.19792,-0.39063 0.57292,0 1.04167,0.18229 0.46875,0.1823 0.80729,0.46875 0.33854,0.26042 0.52083,0.625 0.18229,0.33854 0.18229,0.65104 0,0.39063 -0.18229,0.83334 -0.18229,0.44271 -0.44271,0.85937 -0.23437,0.41667 -0.52083,0.78125 -0.28646,0.33854 -0.49479,0.52083 -0.70313,0.625 -1.58854,1.38021 -0.88542,0.72917 -1.84896,1.51042 -0.96354,0.75521 -1.97917,1.53646 -0.98958,0.7552 -1.92708,1.45833 1.64063,0.91146 2.68229,2.44791 1.06771,1.51042 1.69271,3.38542 0.625,1.84895 0.85937,3.90625 0.23438,2.05729 0.23438,4.01041 0,0.15625 -0.026,0.49479 -0.026,0.3125 -0.10417,0.59896 -0.13021,0.46875 -0.3125,0.85937 -0.18229,0.39063 -0.49479,0.65104 -0.28646,0.28646 -0.72917,0.44271 -0.41666,0.15625 -1.04166,0.15625 -0.59896,0 -1.01563,-0.20833 -0.41666,-0.20833 -0.70312,-0.54688 -0.26042,-0.33854 -0.39063,-0.7552 -0.1302,-0.41667 -0.1302,-0.83334 0,-1.30208 -0.0781,-2.68229 -0.0781,-1.40625 -0.3125,-2.70833 -0.23437,-1.30208 -0.65104,-2.44791 -0.39063,-1.17188 -1.04167,-2.00521 -0.46875,-0.59896 -0.88541,-0.9375 -0.39063,-0.33854 -0.96354,-0.33854 z m 4.94792,-11.71874 z"
   style="font-family:'MV Boli';-inkscape-font-specification:'MV Boli'"
   id="path17615" />
      <path
   d="m 254.15094,173.87284 q 0.20833,0 0.36458,0.0521 0.18229,0.0521 0.39063,0.13021 0.20833,0.0521 0.46875,0.10416 0.26041,0.0521 0.67708,0.0521 1.22396,0 2.70833,-0.26042 1.51042,-0.26042 2.83854,-0.67708 1.32813,-0.41667 2.26562,-0.9375 0.96355,-0.54688 1.09375,-1.11979 0.0781,-0.3125 0.0781,-0.54688 0,-0.44271 -0.44271,-0.83333 -0.41667,-0.41667 -1.06771,-0.78125 -0.65104,-0.36458 -1.40625,-0.67708 -0.7552,-0.3125 -1.40624,-0.57292 l -0.88542,-0.36458 q -0.67708,-0.26042 -1.32813,-0.625 -0.65104,-0.39063 -1.22395,-0.88542 -0.54688,-0.49479 -0.98959,-1.14583 -0.41666,-0.67708 -0.625,-1.53646 -0.10416,-0.36458 -0.18229,-0.72916 -0.0521,-0.36459 -0.0521,-0.78125 0,-0.67709 0.44271,-1.53646 0.46875,-0.88542 1.22396,-1.74479 0.78125,-0.85938 1.74479,-1.64063 0.98958,-0.78125 2.05729,-1.30208 0.78125,-0.54687 1.51041,-0.98958 0.72917,-0.44271 1.45833,-0.75521 0.75521,-0.3125 1.51042,-0.49479 0.78125,-0.18229 1.64062,-0.18229 0.78125,0 1.69271,0.0781 0.91146,0.0781 1.66667,0.36459 0.75521,0.28645 1.25,0.85937 0.52083,0.54688 0.52083,1.48438 0,0.28645 -0.0781,0.7552 -0.0781,0.46875 -0.26042,0.9375 -0.18229,0.46875 -0.44271,0.80729 -0.26042,0.33855 -0.625,0.33855 -0.59896,0 -0.98958,-0.23438 -0.39063,-0.23437 -0.70313,-0.49479 -0.3125,-0.28646 -0.65104,-0.52083 -0.33854,-0.23438 -0.83333,-0.23438 -0.59896,0 -1.40625,0.23438 -0.78125,0.20833 -1.61458,0.59895 -0.83333,0.36459 -1.64063,0.85938 -0.78125,0.49479 -1.43229,1.01562 -0.625,0.52084 -1.01562,1.04167 -0.39063,0.49479 -0.39063,0.91146 0,0.4427 0.28646,0.72916 0.28646,0.28646 0.72917,0.49479 0.57291,0.3125 1.30208,0.625 0.75521,0.3125 1.51042,0.625 0.7552,0.3125 1.45833,0.625 0.72917,0.3125 1.25,0.57292 0.70312,0.36458 1.25,0.72917 0.57291,0.33854 0.96354,0.7552 0.39062,0.41667 0.59896,0.9375 0.20833,0.52084 0.20833,1.22396 0,0.33854 -0.0521,0.67708 -0.0521,0.33854 -0.15625,0.78125 -0.0781,0.39063 -0.28646,0.91146 -0.18229,0.52083 -0.41667,1.04167 -0.20833,0.49479 -0.44271,0.91145 -0.23437,0.39063 -0.39062,0.52084 -1.01563,0.9375 -2.39583,1.77083 -1.38021,0.80729 -2.89063,1.43229 -1.48437,0.59896 -2.99479,0.96354 -1.48437,0.36458 -2.73437,0.36458 -0.625,0 -1.38021,-0.23437 -0.7552,-0.26042 -1.40625,-0.65104 -0.625,-0.41667 -1.0677,-0.9375 -0.41667,-0.52083 -0.41667,-1.04167 0,-0.26041 0.15625,-0.57291 0.15625,-0.33854 0.39062,-0.59896 0.23438,-0.28646 0.4948,-0.46875 0.28645,-0.20833 0.52083,-0.20833 z"
   style="font-family:'MV Boli';-inkscape-font-specification:'MV Boli'"
   id="path17617" />
    </g></g>
</svg>
