<?xml version="1.0" encoding="utf-8"?>
<!-- Generator: Adobe Illustrator 13.0.0, SVG Export Plug-In . SVG Version: 6.00 Build 14948)  -->
<!DOCTYPE svg PUBLIC "-//W3C//DTD SVG 1.1//EN" "http://www.w3.org/Graphics/SVG/1.1/DTD/svg11.dtd" [
	<!ENTITY ns_flows "http://ns.adobe.com/Flows/1.0/">
	<!ENTITY ns_extend "http://ns.adobe.com/Extensibility/1.0/">
	<!ENTITY ns_ai "http://ns.adobe.com/AdobeIllustrator/10.0/">
	<!ENTITY ns_graphs "http://ns.adobe.com/Graphs/1.0/">
	<!ENTITY ns_vars "http://ns.adobe.com/Variables/1.0/">
	<!ENTITY ns_imrep "http://ns.adobe.com/ImageReplacement/1.0/">
	<!ENTITY ns_sfw "http://ns.adobe.com/SaveForWeb/1.0/">
	<!ENTITY ns_custom "http://ns.adobe.com/GenericCustomNamespace/1.0/">
	<!ENTITY ns_adobe_xpath "http://ns.adobe.com/XPath/1.0/">
]>
<svg version="1.1" id="Ebene_1" xmlns:x="&ns_extend;" xmlns:i="&ns_ai;" xmlns:graph="&ns_graphs;"
	 xmlns="http://www.w3.org/2000/svg" xmlns:xlink="http://www.w3.org/1999/xlink" xmlns:a="http://ns.adobe.com/AdobeSVGViewerExtensions/3.0/"
	 x="0px" y="0px" width="290.5px" height="85.789px" viewBox="23.577 0 290.5 85.789"
	 enable-background="new 23.577 0 290.5 85.789" xml:space="preserve">
<metadata>
	<sfw  xmlns="&ns_sfw;">
		<slices></slices>
		<sliceSourceBounds  x="816.781" y="517.325" width="285.603" height="85.789" bottomLeftOrigin="true"></sliceSourceBounds>
	</sfw>
</metadata>
<g>
	<path fill="#000000" d="M277.235,70.452H62.086c-19.423,0-35.228-15.804-35.228-35.228S42.665,0,62.086,0h215.146
		c19.426,0,35.229,15.802,35.229,35.226C312.461,54.649,296.66,70.452,277.235,70.452z M62.086,8.333
		c-14.829,0-26.895,12.063-26.895,26.895c0,14.828,12.064,26.895,26.895,26.895h215.146c14.826,0,26.896-12.065,26.896-26.895
		c0-14.83-12.068-26.895-26.896-26.895H62.086z"/>
	<path fill="#000000" d="M89.718,51.562V19.047H79.94v22.735L65.516,19.047H55.004v32.515h9.779V28.093l15.154,23.469H89.718z"/>
	<path fill="#000000" d="M105.61,51.562V29.56h-9.778v22.002H105.61z"/>
	<path fill="#000000" d="M105.61,24.914v-5.867h-9.778v5.867H105.61z"/>
	<path id="_x33_162" fill="#000000" d="M139.834,51.562V36.403c0-3.178-6.112-7.577-9.289-7.577h-2.935
		c-2.199,0-4.646,1.956-6.846,2.934V29.56h-9.778v22.002h9.778V36.403c0-1.467,3.422-3.178,4.891-3.178
		c1.467,0,4.154,1.711,4.154,3.178v15.158L139.834,51.562L139.834,51.562z"/>
	<path id="_x33_162_1_" fill="#000000" d="M221.655,52.319V37.162c0-3.18-6.109-7.578-9.293-7.578h-2.932
		c-2.201,0-4.646,1.956-6.849,2.933v-2.199h-9.776V52.32h9.776V37.162c0-1.467,3.425-3.18,4.892-3.18s4.154,1.713,4.154,3.18v15.156
		H221.655z"/>
	<path fill="#000000" d="M155.725,51.562V29.56h5.135v-2.934h-5.135v-4.646h-10.021v4.646h-5.135v2.934h5.135v22.002H155.725z"/>
	<path fill="#000000" d="M174.549,28.826c-7.823,0-14.423,5.378-14.423,11.979c0,6.846,6.6,12.223,14.423,12.223
		c6.846,0,12.469-3.91,13.936-9.045h-10.021v2.935c0,2.444-1.709,3.18-3.91,3.18c-2.199,0-3.668-0.734-3.668-3.18v-6.111h18.094
		C188.975,34.205,182.619,28.826,174.549,28.826z M174.549,31.026c2.201,0,3.912,1.468,3.912,3.912v2.199h-7.578v-2.199
		C170.883,32.493,172.35,31.026,174.549,31.026z"/>
	<path fill="#000000" d="M270.875,28.826c-8.07,0-14.427,5.378-14.427,11.979c0,6.846,6.354,12.223,14.427,12.223
		c7.817,0,14.422-5.377,14.422-12.223C285.293,34.205,278.694,28.826,270.875,28.826z M270.875,31.026
		c2.194,0,3.666,1.468,3.666,3.912v11.979c0,2.443-1.472,3.179-3.666,3.179c-2.445,0-3.914-0.734-3.914-3.179V34.938
		C266.959,32.493,268.428,31.026,270.875,31.026z"/>
	<path fill="#000000" d="M242.758,19.047v11.979c0,0-2.937-2.199-6.849-2.199c-6.11,0-11.244,5.378-11.244,11.246
		c0,6.111,5.136,12.224,11.244,12.224c3.912,0,6.849-1.467,6.849-1.467v0.731h9.778V19.047H242.758z M239.09,32.493
		c2.198,0,3.668,1.712,3.668,3.912v9.045c0,2.2-1.47,2.934-3.668,2.934c-2.443,0-3.912-0.732-3.912-2.934v-9.045
		C235.178,34.205,236.647,32.493,239.09,32.493z"/>
	<g>
		<path fill="#000000" d="M286.516,29.216c-2.773,0-5.035-2.258-5.035-5.035c0-2.959,2.213-5.28,5.035-5.28
			c2.729,0,5.037,2.417,5.037,5.28C291.553,26.862,289.203,29.216,286.516,29.216z M286.516,19.683c-2.426,0-4.252,1.935-4.252,4.5
			c0,2.344,1.908,4.254,4.252,4.254c2.229,0,4.254-2.027,4.254-4.254C290.77,21.784,288.787,19.683,286.516,19.683z M287.401,26.33
			l-0.863-1.516h-1.096v1.321h-0.779V21.59h2.104c0.979,0,1.488,0.813,1.488,1.613c0,0.614-0.303,1.237-0.885,1.491l0.711,1.248
			L287.401,26.33z M285.442,24.036h1.32c0.221,0,0.396-0.079,0.521-0.235c0.119-0.149,0.188-0.368,0.188-0.597
			c0-0.312-0.15-0.832-0.709-0.832h-1.32V24.036L285.442,24.036z"/>
	</g>
</g>
<g>
	<path fill="#000000" d="M48.071,85.789h-9.103c-2.601,0-3.901-1.301-3.901-3.901v-7.803h13.004v2.602H37.667v1.95h10.403v2.601
		H37.667v0.65c0,0.867,0.434,1.301,1.301,1.301h9.103V85.789z"/>
	<path fill="#000000" d="M49.372,85.789V74.085h9.103c2.601,0,3.901,1.301,3.901,3.901v7.803h-2.601v-7.803
		c0-0.866-0.434-1.3-1.3-1.3h-6.502v9.103H49.372z"/>
	<path fill="#000000" d="M63.676,74.085H76.68v2.602h-5.202v9.103h-2.601v-9.103h-5.202V74.085z"/>
	<path fill="#000000" d="M90.984,85.789h-9.103c-2.601,0-3.901-1.301-3.901-3.901v-7.803h13.004v2.602H80.581v1.95h10.403v2.601
		H80.581v0.65c0,0.867,0.434,1.301,1.301,1.301h9.103V85.789z"/>
	<path fill="#000000" d="M94.886,81.238v4.552h-2.601V74.085h9.103c2.601,0,3.901,1.188,3.901,3.563
		c0,1.127-0.187,1.955-0.559,2.483c0.373,0.616,0.559,1.418,0.559,2.406v3.251h-2.601v-3.251c0-0.867-0.434-1.301-1.3-1.301H94.886z
		 M94.886,78.637h7.803v-1.95h-7.803V78.637z"/>
	<path fill="#000000" d="M106.589,74.085h13.004v2.602h-5.202v9.103h-2.601v-9.103h-5.202V74.085z"/>
	<path fill="#000000" d="M123.495,82.538v3.251h-2.601v-7.803c0-2.601,1.3-3.901,3.901-3.901h5.202c2.601,0,3.901,1.301,3.901,3.901
		v7.803h-2.601v-3.251H123.495z M131.297,79.938v-1.951c0-0.866-0.434-1.3-1.3-1.3h-5.202c-0.867,0-1.301,0.434-1.301,1.3v1.951
		H131.297z"/>
	<path fill="#000000" d="M135.199,85.789V74.085h2.601v11.704H135.199z"/>
	<path fill="#000000" d="M139.1,85.789V74.085h9.103c2.601,0,3.901,1.301,3.901,3.901v7.803h-2.601v-7.803
		c0-0.866-0.434-1.3-1.3-1.3h-6.502v9.103H139.1z"/>
	<path fill="#000000" d="M153.404,85.789V74.085h10.403c2.602,0,3.901,1.301,3.901,3.901v7.803h-2.601v-7.803
		c0-0.866-0.434-1.3-1.301-1.3h-1.95v9.103h-2.601v-9.103h-3.251v9.103H153.404z"/>
	<path fill="#000000" d="M182.013,85.789h-9.103c-2.601,0-3.901-1.301-3.901-3.901v-7.803h13.004v2.602H171.61v1.95h10.403v2.601
		H171.61v0.65c0,0.867,0.434,1.301,1.301,1.301h9.103V85.789z"/>
	<path fill="#000000" d="M183.314,85.789V74.085h9.103c2.602,0,3.901,1.301,3.901,3.901v7.803h-2.601v-7.803
		c0-0.866-0.434-1.3-1.301-1.3h-6.502v9.103H183.314z"/>
	<path fill="#000000" d="M197.619,74.085h13.004v2.602h-5.201v9.103h-2.602v-9.103h-5.201V74.085z"/>
	<path fill="#000000" d="M217.125,83.189h10.403v-1.951h-6.502c-2.601,0-3.901-1.175-3.901-3.523c0-2.419,1.301-3.629,3.901-3.629
		h9.103v2.602h-10.403v1.95h6.502c2.602,0,3.901,1.192,3.901,3.576s-1.3,3.576-3.901,3.576h-9.103V83.189z"/>
	<path fill="#000000" d="M236.63,81.238h-1.3c-2.601,0-3.901-1.3-3.901-3.901v-3.251h2.601v3.251c0,0.867,0.434,1.301,1.301,1.301
		h5.201c0.867,0,1.301-0.434,1.301-1.301v-3.251h2.601v3.251c0,2.602-1.3,3.901-3.901,3.901h-1.3v4.552h-2.602V81.238z"/>
	<path fill="#000000" d="M245.734,83.189h10.403v-1.951h-6.502c-2.601,0-3.901-1.175-3.901-3.523c0-2.419,1.301-3.629,3.901-3.629
		h9.103v2.602h-10.403v1.95h6.502c2.602,0,3.901,1.192,3.901,3.576s-1.3,3.576-3.901,3.576h-9.103V83.189z"/>
	<path fill="#000000" d="M260.039,74.085h13.004v2.602h-5.201v9.103h-2.602v-9.103h-5.201V74.085z"/>
	<path fill="#000000" d="M287.346,85.789h-9.103c-2.601,0-3.901-1.301-3.901-3.901v-7.803h13.004v2.602h-10.403v1.95h10.403v2.601
		h-10.403v0.65c0,0.867,0.434,1.301,1.301,1.301h9.103V85.789z"/>
	<path fill="#000000" d="M288.647,85.789V74.085h10.403c2.601,0,3.901,1.301,3.901,3.901v7.803h-2.601v-7.803
		c0-0.866-0.434-1.3-1.301-1.3h-1.95v9.103h-2.602v-9.103h-3.251v9.103H288.647z"/>
    <path
         fill= "#000000" d="m 139.67184,177.70096 q 0,-0.28646 0.0781,-0.75521 0.10417,-0.49479 0.23438,-0.98958 0.1302,-0.52083 0.26041,-0.98958 0.15625,-0.46875 0.23438,-0.75521 L 151.026,139.60202 q 0.1302,-0.18229 0.28645,-0.3125 0.13021,-0.1302 0.33855,-0.20833 0.23437,-0.10417 0.54687,-0.10417 h 0.44271 q 0.57292,0 0.96354,0.20834 0.39062,0.18229 0.625,0.52083 0.23437,0.3125 0.3125,0.75521 0.10417,0.41666 0.10417,0.91146 0,0.41666 -0.0781,0.88541 -0.0521,0.44271 -0.13021,0.88542 -0.0781,0.41666 -0.18229,0.78125 -0.0781,0.36458 -0.13021,0.57291 l -5.41666,18.48958 2.47396,-0.23438 q 4.14062,-0.91146 8.43749,-1.875 4.32292,-0.98958 8.46354,-1.90104 0.46875,-0.23437 0.83333,-0.96354 0.36458,-0.72917 0.70313,-1.90104 0.36458,-1.17187 0.78125,-2.73437 0.41666,-1.58854 1.01562,-3.51563 l 0.54687,-1.79687 q 0.33855,-1.30208 0.59896,-2.65625 0.28646,-1.38021 0.67709,-2.5 0.39062,-1.11979 0.98958,-1.82291 0.59896,-0.72917 1.53646,-0.72917 1.32812,0 2.05729,0.85938 0.72916,0.83333 0.72916,2.10937 0,0.80729 -0.625,2.70833 -0.59896,1.90104 -1.51041,4.63541 -0.33854,1.01563 -0.72917,2.08334 -0.39062,1.0677 -0.72917,2.05729 -0.3125,0.96354 -0.52083,1.79687 -0.20833,0.80729 -0.20833,1.30208 0,0.46875 0.13021,0.9375 0.1302,0.44271 0.1302,0.96354 0,1.17188 -0.625,1.95313 -0.62499,0.78125 -1.71874,1.58854 -0.0521,0.20833 -0.15625,0.65104 -0.0781,0.44271 -0.20834,0.91146 l -0.33854,1.32812 q -0.36458,1.43229 -0.625,2.86458 -0.23437,1.43229 -0.44271,2.83854 -0.18229,1.40625 -0.41666,2.8125 -0.20834,1.40625 -0.54688,2.78646 -0.13021,0.52083 -0.46875,0.9375 -0.3125,0.39062 -0.75521,0.67708 -0.41666,0.28646 -0.88541,0.44271 -0.46875,0.15625 -0.88542,0.15625 -0.625,0 -1.01562,-0.28646 -0.39063,-0.28646 -0.625,-0.67708 -0.20833,-0.39063 -0.28646,-0.80729 -0.0781,-0.41667 -0.0781,-0.70313 0,-0.3125 0.0781,-1.01562 0.10417,-0.72917 0.26042,-1.69271 0.15625,-0.96354 0.36458,-2.08333 0.20833,-1.11979 0.41667,-2.26563 0.49479,-2.65624 1.14583,-5.80728 h -0.18229 q -0.67709,0 -1.45833,0.15625 -0.78125,0.1302 -1.875,0.39062 -0.4948,0.15625 -1.48438,0.41667 -0.96354,0.26041 -2.21354,0.59896 -1.25,0.33854 -2.70833,0.72916 -1.43229,0.39063 -2.86458,0.78125 l -7.05729,1.92708 q -0.49479,1.01563 -0.9375,2.21354 -0.41666,1.17188 -0.78125,2.39584 -0.36458,1.19791 -0.67708,2.36979 -0.28646,1.17187 -0.54688,2.21354 -0.0781,0.28645 -0.33854,0.625 -0.23437,0.33854 -0.57291,0.625 -0.3125,0.28645 -0.67709,0.46875 -0.33854,0.18229 -0.65104,0.18229 -0.57291,0 -0.96354,-0.26042 -0.36458,-0.23437 -0.59896,-0.65104 -0.23437,-0.39063 -0.33854,-0.91146 -0.0781,-0.49479 -0.0781,-0.98958 z"/>
    <path
         fill= "#000000" d="m 191.96347,177.36242 q 0,-0.75521 0.1823,-1.79688 0.18229,-1.0677 0.18229,-2.6302 -0.85938,0.625 -1.90104,1.48437 -1.04167,0.85938 -2.16146,1.64062 -1.11979,0.78125 -2.23958,1.32813 -1.09375,0.52083 -2.05729,0.52083 -0.78125,0 -1.48438,-0.23437 -0.70312,-0.23438 -1.19791,-0.625 -1.38021,-1.09375 -2.00521,-2.1875 -0.59896,-1.09375 -0.59896,-2.55208 0,-0.65104 0.10417,-1.35417 0.13021,-0.70312 0.36458,-1.61458 0.98958,-4.11458 3.38542,-7.60416 2.42187,-3.51563 5.98958,-5.98958 1.3802,-0.96354 2.76041,-1.22396 1.38021,-0.28646 2.73437,-0.28646 0.59896,0 1.32813,0.0781 0.75521,0.0781 1.35416,0.15625 0.59896,-0.13021 0.96355,-0.1823 0.39062,-0.0521 0.80729,-0.0521 0.78125,0 1.30208,0.20833 0.52083,0.20834 0.83333,0.57292 0.3125,0.33854 0.44271,0.80729 0.15625,0.44271 0.15625,0.9375 0,0.67708 -0.20833,1.30208 -0.20834,0.59896 -0.41667,1.22396 l -3.4375,13.72395 q -0.10416,1.11979 -0.18229,2.05729 -0.0781,0.9375 -0.3125,1.74479 -0.0781,0.23438 -0.20833,0.59896 -0.10417,0.33854 -0.36459,0.67708 -0.26041,0.3125 -0.65104,0.54688 -0.39062,0.23437 -1.01562,0.23437 -0.80729,0 -1.30208,-0.10416 -0.46875,-0.10417 -0.72917,-0.28646 -0.26042,-0.20833 -0.33854,-0.46875 -0.0781,-0.28646 -0.0781,-0.65104 z m -8.64582,-7.86458 q -0.10417,0.36458 -0.23438,1.04166 -0.10417,0.67709 -0.10417,1.35417 0,0.70313 0.20834,1.27604 0.20833,0.54688 0.91146,0.54688 1.09374,0 2.03124,-0.46875 0.96355,-0.49479 1.79688,-1.17188 1.11979,-0.91146 2.26562,-2.03125 1.17188,-1.14583 2.1875,-2.39583 1.04167,-1.25 1.82292,-2.55208 0.80729,-1.32812 1.17187,-2.63021 0.20833,-0.75521 0.33854,-1.74479 0.15625,-0.98958 0.15625,-1.77083 0,-0.33854 -0.15625,-0.65104 -0.15625,-0.33854 -0.59896,-0.33854 -1.27604,0 -2.57812,0.49479 -1.27604,0.49479 -2.47396,1.32812 -1.19791,0.83334 -2.29166,1.97917 -1.06771,1.11979 -1.95313,2.42187 -0.88541,1.27604 -1.53645,2.65625 -0.625,1.35417 -0.96354,2.65625 z" />
      <path
         fill= "#000000" d="m 205.24471,168.29992 q 0.49479,-2.0052 1.45833,-4.1927 0.98959,-2.1875 2.3698,-4.21875 1.3802,-2.05729 3.12499,-3.77604 1.77084,-1.74479 3.85417,-2.83854 0.67708,-0.36458 1.48437,-0.54687 0.80729,-0.1823 1.64063,-0.1823 0.85937,0 1.58854,0.15625 0.7552,0.15625 1.27604,0.52084 0.54687,0.36458 0.85937,0.9375 0.3125,0.57291 0.3125,1.40625 0,0.62499 -0.18229,1.27604 -0.18229,0.625 -0.54687,1.14583 -0.36459,0.49479 -0.91146,0.80729 -0.54688,0.3125 -1.27604,0.3125 -0.57292,0 -1.06771,-0.20833 -0.46875,-0.20834 -0.91146,-0.46875 -0.23437,-0.15625 -0.44271,-0.26042 -0.20833,-0.13021 -0.49479,-0.23437 -1.04166,0.46875 -1.97916,1.24999 -0.91146,0.75521 -1.71875,1.69271 -0.78125,0.9375 -1.45834,2.00521 -0.65104,1.06771 -1.19791,2.13541 -0.52083,1.06771 -0.91146,2.10938 -0.36458,1.01562 -0.59896,1.875 -0.18229,0.625 -0.33854,1.43229 -0.13021,0.78125 -0.13021,1.53646 0,0.52083 0.0781,0.98958 0.10416,0.46875 0.33854,0.83333 0.23437,0.36458 0.625,0.57292 0.39062,0.20833 0.96354,0.20833 0.91146,0 1.79687,-0.23437 0.91146,-0.23438 1.77084,-0.59896 0.85937,-0.36459 1.66666,-0.83334 0.83334,-0.49479 1.61458,-0.98958 0.4948,-0.3125 0.98959,-0.65104 0.49479,-0.33854 0.9375,-0.59896 0.4427,-0.26041 0.80729,-0.41666 0.39062,-0.1823 0.67708,-0.1823 0.39063,0 0.72917,0.20834 0.33854,0.18229 0.33854,0.65104 0,0.33854 -0.15625,0.75521 -0.36458,1.01562 -0.98958,1.82291 -0.625,0.80729 -1.40625,1.45834 -0.75521,0.62499 -1.64063,1.11979 -0.85937,0.49479 -1.71875,0.91145 -1.61458,0.85938 -3.28124,1.30209 -1.64063,0.41666 -2.76042,0.41666 -0.36458,0 -0.85937,-0.0781 -0.49479,-0.0781 -0.85938,-0.23438 -2.10937,-0.91145 -3.07291,-2.44791 -0.96354,-1.53646 -0.96354,-3.64583 0,-0.91146 0.1302,-1.90104 0.15625,-1.01563 0.44271,-2.10938 z" />
      <path
         fill= "#000000" d="m 238.76032,165.87805 q -0.52083,0 -1.17187,0.26042 -0.65104,0.23437 -1.30208,0.57291 -0.65104,0.33854 -1.25,0.70313 -0.59896,0.36458 -1.04167,0.57291 l -2.36979,9.375 q -0.13021,0.54687 -0.65104,0.83333 -0.52083,0.28646 -0.96354,0.28646 -1.40625,0 -1.92708,-0.54688 -0.4948,-0.57291 -0.4948,-1.48437 0,-0.39063 0.0521,-0.78125 0.0781,-0.41667 0.18229,-0.85937 l 0.10417,-0.44271 q 0.15625,-0.70313 0.41666,-1.77083 0.28646,-1.06771 0.59896,-2.23959 0.3125,-1.19791 0.625,-2.39583 0.33854,-1.22396 0.625,-2.23958 0.28646,-0.98958 0.83333,-2.94271 0.57292,-1.95312 1.25,-4.37499 0.70313,-2.42188 1.43229,-5.05209 0.75521,-2.65624 1.40625,-5.05208 0.67708,-2.39583 1.19792,-4.24478 0.52083,-1.875 0.72916,-2.76042 0.23438,-0.36458 0.72917,-0.59896 0.49479,-0.23437 1.17187,-0.23437 0.46875,0 0.96355,0.13021 0.49479,0.10416 0.88541,0.36458 0.41667,0.23437 0.67708,0.625 0.26042,0.36458 0.26042,0.85937 0,0.33854 -0.15625,0.80729 -1.5625,4.53125 -3.09895,9.40104 -1.53646,4.84375 -2.78646,9.8177 0.33854,-0.20833 1.25,-0.85937 0.91146,-0.65104 2.0052,-1.51042 1.1198,-0.85937 2.23959,-1.79687 1.11979,-0.9375 1.875,-1.69271 0.52083,-0.52083 1.04166,-1.06771 0.54688,-0.57291 1.01563,-1.0677 0.49479,-0.52084 0.85937,-0.91146 0.36458,-0.41667 0.57292,-0.65104 0.49479,-0.57292 1.0677,-0.9375 0.59896,-0.39063 1.19792,-0.39063 0.57292,0 1.04167,0.18229 0.46875,0.1823 0.80729,0.46875 0.33854,0.26042 0.52083,0.625 0.18229,0.33854 0.18229,0.65104 0,0.39063 -0.18229,0.83334 -0.18229,0.44271 -0.44271,0.85937 -0.23437,0.41667 -0.52083,0.78125 -0.28646,0.33854 -0.49479,0.52083 -0.70313,0.625 -1.58854,1.38021 -0.88542,0.72917 -1.84896,1.51042 -0.96354,0.75521 -1.97917,1.53646 -0.98958,0.7552 -1.92708,1.45833 1.64063,0.91146 2.68229,2.44791 1.06771,1.51042 1.69271,3.38542 0.625,1.84895 0.85937,3.90625 0.23438,2.05729 0.23438,4.01041 0,0.15625 -0.026,0.49479 -0.026,0.3125 -0.10417,0.59896 -0.13021,0.46875 -0.3125,0.85937 -0.18229,0.39063 -0.49479,0.65104 -0.28646,0.28646 -0.72917,0.44271 -0.41666,0.15625 -1.04166,0.15625 -0.59896,0 -1.01563,-0.20833 -0.41666,-0.20833 -0.70312,-0.54688 -0.26042,-0.33854 -0.39063,-0.7552 -0.1302,-0.41667 -0.1302,-0.83334 0,-1.30208 -0.0781,-2.68229 -0.0781,-1.40625 -0.3125,-2.70833 -0.23437,-1.30208 -0.65104,-2.44791 -0.39063,-1.17188 -1.04167,-2.00521 -0.46875,-0.59896 -0.88541,-0.9375 -0.39063,-0.33854 -0.96354,-0.33854 z m 4.94792,-11.71874 z" />
      <path
         fill= "#000000" d="m 254.15094,173.87284 q 0.20833,0 0.36458,0.0521 0.18229,0.0521 0.39063,0.13021 0.20833,0.0521 0.46875,0.10416 0.26041,0.0521 0.67708,0.0521 1.22396,0 2.70833,-0.26042 1.51042,-0.26042 2.83854,-0.67708 1.32813,-0.41667 2.26562,-0.9375 0.96355,-0.54688 1.09375,-1.11979 0.0781,-0.3125 0.0781,-0.54688 0,-0.44271 -0.44271,-0.83333 -0.41667,-0.41667 -1.06771,-0.78125 -0.65104,-0.36458 -1.40625,-0.67708 -0.7552,-0.3125 -1.40624,-0.57292 l -0.88542,-0.36458 q -0.67708,-0.26042 -1.32813,-0.625 -0.65104,-0.39063 -1.22395,-0.88542 -0.54688,-0.49479 -0.98959,-1.14583 -0.41666,-0.67708 -0.625,-1.53646 -0.10416,-0.36458 -0.18229,-0.72916 -0.0521,-0.36459 -0.0521,-0.78125 0,-0.67709 0.44271,-1.53646 0.46875,-0.88542 1.22396,-1.74479 0.78125,-0.85938 1.74479,-1.64063 0.98958,-0.78125 2.05729,-1.30208 0.78125,-0.54687 1.51041,-0.98958 0.72917,-0.44271 1.45833,-0.75521 0.75521,-0.3125 1.51042,-0.49479 0.78125,-0.18229 1.64062,-0.18229 0.78125,0 1.69271,0.0781 0.91146,0.0781 1.66667,0.36459 0.75521,0.28645 1.25,0.85937 0.52083,0.54688 0.52083,1.48438 0,0.28645 -0.0781,0.7552 -0.0781,0.46875 -0.26042,0.9375 -0.18229,0.46875 -0.44271,0.80729 -0.26042,0.33855 -0.625,0.33855 -0.59896,0 -0.98958,-0.23438 -0.39063,-0.23437 -0.70313,-0.49479 -0.3125,-0.28646 -0.65104,-0.52083 -0.33854,-0.23438 -0.83333,-0.23438 -0.59896,0 -1.40625,0.23438 -0.78125,0.20833 -1.61458,0.59895 -0.83333,0.36459 -1.64063,0.85938 -0.78125,0.49479 -1.43229,1.01562 -0.625,0.52084 -1.01562,1.04167 -0.39063,0.49479 -0.39063,0.91146 0,0.4427 0.28646,0.72916 0.28646,0.28646 0.72917,0.49479 0.57291,0.3125 1.30208,0.625 0.75521,0.3125 1.51042,0.625 0.7552,0.3125 1.45833,0.625 0.72917,0.3125 1.25,0.57292 0.70312,0.36458 1.25,0.72917 0.57291,0.33854 0.96354,0.7552 0.39062,0.41667 0.59896,0.9375 0.20833,0.52084 0.20833,1.22396 0,0.33854 -0.0521,0.67708 -0.0521,0.33854 -0.15625,0.78125 -0.0781,0.39063 -0.28646,0.91146 -0.18229,0.52083 -0.41667,1.04167 -0.20833,0.49479 -0.44271,0.91145 -0.23437,0.39063 -0.39062,0.52084 -1.01563,0.9375 -2.39583,1.77083 -1.38021,0.80729 -2.89063,1.43229 -1.48437,0.59896 -2.99479,0.96354 -1.48437,0.36458 -2.73437,0.36458 -0.625,0 -1.38021,-0.23437 -0.7552,-0.26042 -1.40625,-0.65104 -0.625,-0.41667 -1.0677,-0.9375 -0.41667,-0.52083 -0.41667,-1.04167 0,-0.26041 0.15625,-0.57291 0.15625,-0.33854 0.39062,-0.59896 0.23438,-0.28646 0.4948,-0.46875 0.28645,-0.20833 0.52083,-0.20833 z" />
</g>
</svg>
