<?xml version="1.0" encoding="UTF-8" standalone="no"?>
<!-- Generator: Adobe Illustrator 13.0.0, SVG Export Plug-In . SVG Version: 6.00 Build 14948)  -->

<svg
   version="1.1"
   id="Ebene_1"
   x="0px"
   y="0px"
   width="345.16666"
   height="162.69931"
   viewBox="-0.501 0 345.16666 162.69932"
   enable-background="new -0.501 0 341.155 127.229"
   xml:space="preserve"
   sodipodi:docname="system2.svg"
   inkscape:version="1.1.1 (3bf5ae0d25, 2021-09-20)"
   xmlns:inkscape="http://www.inkscape.org/namespaces/inkscape"
   xmlns:sodipodi="http://sodipodi.sourceforge.net/DTD/sodipodi-0.dtd"
   xmlns="http://www.w3.org/2000/svg"
   xmlns:svg="http://www.w3.org/2000/svg"><defs
   id="defs126" /><sodipodi:namedview
   id="namedview124"
   pagecolor="#ffffff"
   bordercolor="#666666"
   borderopacity="1.0"
   inkscape:pageshadow="2"
   inkscape:pageopacity="0.0"
   inkscape:pagecheckerboard="0"
   showgrid="false"
   inkscape:zoom="4.2531987"
   inkscape:cx="170.5775"
   inkscape:cy="63.71675"
   inkscape:window-width="3840"
   inkscape:window-height="2066"
   inkscape:window-x="-11"
   inkscape:window-y="-11"
   inkscape:window-maximized="1"
   inkscape:current-layer="Ebene_1" />






























<g
   id="g226"><path
     fill="#ff0000"
     d="M 277.725,70.452 H 62.577 C 43.154,70.452 27.349,54.649 27.349,35.225 27.349,15.801 43.155,0 62.577,0 h 215.146 c 19.426,0 35.229,15.802 35.229,35.226 -10e-4,19.423 -15.802,35.226 -35.227,35.226 z M 62.577,8.333 c -14.829,0 -26.895,12.064 -26.895,26.895 0,14.828 12.065,26.894 26.895,26.894 h 215.146 c 14.827,0 26.896,-12.065 26.896,-26.894 0,-14.83 -12.067,-26.895 -26.896,-26.895 H 62.577 Z"
     id="path2" /><path
     fill="#ff0000"
     d="M 90.209,51.562 V 19.047 H 80.43 V 41.782 L 66.007,19.047 H 55.495 v 32.515 h 9.779 V 28.093 l 15.155,23.469 z"
     id="path4" /><path
     fill="#ff0000"
     d="M 106.1,51.562 V 29.56 h -9.778 v 22.002 z"
     id="path6" /><path
     fill="#ff0000"
     d="m 106.1,24.914 v -5.867 h -9.778 v 5.867 z"
     id="path8" /><path
     id="_x33_162"
     fill="#ff0000"
     d="M 140.325,51.562 V 36.403 c 0,-3.178 -6.112,-7.578 -9.289,-7.578 h -2.935 c -2.199,0 -4.645,1.956 -6.845,2.934 V 29.56 h -9.779 v 22.002 h 9.779 V 36.403 c 0,-1.467 3.422,-3.178 4.89,-3.178 1.467,0 4.155,1.711 4.155,3.178 v 15.158 z" /><path
     id="_x33_162_1_"
     fill="#ff0000"
     d="M 222.145,52.319 V 37.162 c 0,-3.179 -6.109,-7.578 -9.293,-7.578 h -2.932 c -2.201,0 -4.646,1.956 -6.848,2.933 v -2.199 h -9.777 V 52.32 h 9.777 V 37.162 c 0,-1.466 3.424,-3.179 4.891,-3.179 1.467,0 4.154,1.713 4.154,3.179 v 15.157 z" /><path
     fill="#ff0000"
     d="M 156.216,51.562 V 29.56 h 5.134 v -2.934 h -5.134 v -4.645 h -10.021 v 4.645 h -5.135 v 2.934 h 5.135 v 22.002 z"
     id="path12" /><path
     fill="#ff0000"
     d="m 175.039,28.826 c -7.822,0 -14.422,5.378 -14.422,11.979 0,6.846 6.6,12.223 14.422,12.223 6.846,0 12.469,-3.911 13.936,-9.045 h -10.021 v 2.934 c 0,2.445 -1.709,3.18 -3.91,3.18 -2.2,0 -3.668,-0.734 -3.668,-3.18 v -6.111 h 18.093 c -0.004,-6.601 -6.36,-11.98 -14.43,-11.98 z m 0,2.2 c 2.201,0 3.912,1.467 3.912,3.912 v 2.199 h -7.578 v -2.199 c 0,-2.445 1.467,-3.912 3.666,-3.912 z"
     id="path14" /><path
     fill="#ff0000"
     d="m 271.365,28.826 c -8.069,0 -14.426,5.378 -14.426,11.979 0,6.846 6.354,12.223 14.426,12.223 7.818,0 14.422,-5.377 14.422,-12.223 -0.004,-6.6 -6.603,-11.979 -14.422,-11.979 z m 0,2.2 c 2.195,0 3.666,1.467 3.666,3.912 v 11.978 c 0,2.444 -1.471,3.179 -3.666,3.179 -2.444,0 -3.914,-0.734 -3.914,-3.179 V 34.938 c -0.002,-2.445 1.467,-3.912 3.914,-3.912 z"
     id="path16" /><path
     fill="#ff0000"
     d="m 243.248,19.047 v 11.979 c 0,0 -2.936,-2.2 -6.848,-2.2 -6.111,0 -11.244,5.378 -11.244,11.246 0,6.112 5.135,12.224 11.244,12.224 3.912,0 6.848,-1.467 6.848,-1.467 v 0.732 h 9.779 V 19.047 Z m -3.668,13.446 c 2.199,0 3.668,1.712 3.668,3.912 v 9.045 c 0,2.201 -1.469,2.934 -3.668,2.934 -2.443,0 -3.912,-0.732 -3.912,-2.934 v -9.045 c 0,-2.2 1.469,-3.912 3.912,-3.912 z"
     id="path18" /><g
     id="g22"
     transform="translate(0.001)">
	<path
   fill="#ff0000"
   d="m 287.006,29.216 c -2.774,0 -5.036,-2.258 -5.036,-5.035 0,-2.959 2.213,-5.28 5.036,-5.28 2.729,0 5.036,2.417 5.036,5.28 0,2.681 -2.35,5.035 -5.036,5.035 z m 0,-9.533 c -2.427,0 -4.253,1.934 -4.253,4.5 0,2.344 1.908,4.254 4.253,4.254 2.229,0 4.254,-2.028 4.254,-4.254 0,-2.399 -1.984,-4.5 -4.254,-4.5 z m 0.884,6.647 -0.863,-1.515 h -1.096 v 1.321 h -0.779 V 21.59 h 2.104 c 0.979,0 1.488,0.813 1.488,1.613 0,0.615 -0.303,1.238 -0.885,1.492 l 0.711,1.248 z m -1.959,-2.294 h 1.321 c 0.22,0 0.396,-0.079 0.521,-0.235 0.119,-0.149 0.188,-0.368 0.188,-0.597 0,-0.311 -0.151,-0.832 -0.709,-0.832 h -1.321 z"
   id="path20" />
</g><g
     id="g27"
     transform="translate(0.001)">
	<path
   id="_x32_399_1_"
   d="m 51.827,99.231 v -14.18 c 0,-2.688 -2.689,-5.379 -5.378,-5.379 H 25.914 v 19.56 h 6.357 v -13.2 c 0,-0.979 0.732,-1.957 1.711,-1.957 h 9.777 c 0.979,0 1.957,0.979 1.957,1.957 v 13.199 z" />
	<path
   fill="#ffffff"
   d="M 45.216,99.729 V 86.032 c 0.002,-0.32 -0.173,-0.704 -0.466,-0.994 v 0 c -0.289,-0.291 -0.671,-0.469 -0.991,-0.464 v 0 h -9.778 c -0.616,0.002 -1.21,0.704 -1.21,1.458 v 0 13.696 H 25.414 V 79.17 H 46.45 c 3.011,0.039 5.84,2.868 5.877,5.881 v 0 14.181 0.497 z m 6.611,-0.498 v -0.5 z M 43.759,83.574 c 1.301,0.037 2.42,1.156 2.457,2.458 v 0 12.699 h 5.111 v -13.68 c 0.004,-1.175 -0.601,-2.414 -1.534,-3.345 v 0 C 48.862,80.772 47.625,80.167 46.45,80.171 v 0 H 26.415 V 98.73 h 5.357 V 86.032 c 0.004,-1.206 0.869,-2.429 2.209,-2.458 v 0 z"
   id="path25" />
</g><g
     id="g32"
     transform="translate(0.001)">
	<path
   id="_x32_399_2_"
   d="m 221.469,99.231 v -14.18 c 0,-2.688 -2.688,-5.379 -5.376,-5.379 h -20.535 v 19.56 h 6.354 v -13.2 c 0,-0.979 0.736,-1.957 1.713,-1.957 h 9.779 c 0.979,0 1.953,0.979 1.953,1.957 v 13.199 z" />
	<path
   fill="#ffffff"
   d="M 214.856,99.73 V 86.031 c 0.002,-0.319 -0.174,-0.704 -0.464,-0.993 v 0 c -0.289,-0.29 -0.67,-0.468 -0.989,-0.464 v 0 h -9.779 c -0.616,0.002 -1.212,0.706 -1.214,1.457 v 0 13.699 h -7.354 V 79.17 h 21.038 c 3.008,0.037 5.836,2.867 5.875,5.88 v 0 14.18 0.5 z m 6.612,-0.5 v -0.499 z m -8.065,-15.655 c 1.302,0.037 2.415,1.156 2.452,2.456 v 0 l -0.002,12.7 h 5.114 v -13.68 c 0.004,-1.176 -0.601,-2.415 -1.533,-3.346 v 0 c -0.931,-0.933 -2.168,-1.537 -3.341,-1.533 v 0 L 196.056,80.17 v 18.56 h 5.354 V 86.031 c 0.006,-1.206 0.873,-2.429 2.213,-2.458 v 0 z"
   id="path30" />
</g><g
     id="g37"
     transform="translate(0.001)">
	<path
   id="_x32_399_3_"
   d="m 314.327,99.231 v -14.18 c 0,-2.688 -2.688,-5.379 -5.379,-5.379 h -20.535 v 19.56 h 6.354 v -13.2 c 0,-0.979 0.732,-1.957 1.715,-1.957 h 9.775 c 0.979,0 1.955,0.979 1.955,1.957 v 13.199 z" />
	<path
   fill="#ffffff"
   d="M 307.712,99.73 V 86.031 c 0.002,-0.32 -0.173,-0.703 -0.466,-0.993 v 0 c -0.287,-0.291 -0.67,-0.467 -0.99,-0.463 v 0 l -9.774,-0.002 c -0.623,0.002 -1.215,0.705 -1.218,1.458 v 0 13.699 h -7.352 V 79.172 h 21.036 c 3.013,0.037 5.84,2.866 5.879,5.878 v 0 14.18 0.5 z m 6.615,-0.5 v -0.5 z m -8.071,-15.655 c 1.302,0.036 2.419,1.155 2.454,2.456 v 0 12.699 h 5.115 V 85.05 c 0.005,-1.176 -0.601,-2.414 -1.533,-3.345 v 0 c -0.931,-0.934 -2.17,-1.538 -3.344,-1.533 v 0 H 288.912 V 98.73 h 5.354 V 86.031 c 0.004,-1.205 0.87,-2.429 2.215,-2.458 v 0 z"
   id="path35" />
</g><g
     id="g42"
     transform="translate(0.001)">
	<path
   id="_x33_177_1_"
   d="m 258.892,99.231 v -14.18 c 0,-2.688 -2.688,-5.379 -5.379,-5.379 h -27.625 v 19.56 h 6.357 v -13.2 c 0,-0.979 0.73,-1.957 1.709,-1.957 h 3.668 c 0.734,0 1.712,0.979 1.712,1.957 v 13.199 h 6.358 V 86.032 c 0,-0.979 0.73,-1.957 1.709,-1.957 h 3.668 c 0.732,0 1.711,0.979 1.711,1.957 v 13.199 z" />
	<path
   fill="#ffffff"
   d="m 238.834,99.731 v -13.7 c 0.003,-0.319 -0.179,-0.715 -0.45,-1.008 v 0 c -0.265,-0.301 -0.617,-0.461 -0.763,-0.45 v 0 h -3.668 c -0.615,0.002 -1.208,0.704 -1.21,1.458 v 0 13.698 h -7.356 V 79.172 h 28.126 c 3.014,0.037 5.84,2.867 5.88,5.879 v 0 14.18 0.499 h -7.112 V 86.031 c 0.004,-0.319 -0.179,-0.715 -0.451,-1.008 v 0 c -0.264,-0.301 -0.617,-0.461 -0.76,-0.45 v 0 h -3.67 c -0.614,0.002 -1.207,0.704 -1.209,1.458 v 0 13.7 z m 20.058,-0.501 v -0.499 z m -7.823,-15.655 c 1.128,0.07 2.148,1.16 2.209,2.456 v 0 12.7 h 5.112 v -13.68 c 0.004,-1.177 -0.601,-2.415 -1.534,-3.346 v 0 c -0.931,-0.934 -2.169,-1.538 -3.344,-1.534 v 0 l -27.125,-0.002 v 18.563 h 5.355 v -12.7 c 0.007,-1.203 0.869,-2.429 2.21,-2.456 v 0 h 3.668 c 1.13,0.07 2.152,1.16 2.211,2.456 v 0 12.698 h 5.359 V 86.031 c 0.005,-1.203 0.867,-2.429 2.209,-2.456 v 0 z"
   id="path40" />
</g><g
     id="g47"
     transform="translate(0.001)">
	<path
   id="_x33_181_1_"
   d="M 21.514,99.231 H 5.379 C 2.691,99.231 0,97.521 0,94.833 v -15.4 h 21.513 v 4.646 H 7.089 c -0.732,0 -1.711,0.733 -1.711,1.712 0,0.979 0.979,1.712 1.711,1.712 h 13.446 v 3.911 H 7.089 c -0.732,0 -1.711,0.979 -1.711,1.712 0,0.979 0.979,1.955 1.711,1.955 h 14.424 z" />
	<path
   fill="#ffffff"
   d="M 5.379,99.73 C 2.511,99.725 -0.473,97.902 -0.502,94.832 v 0 -15.9 h 22.515 v 5.646 H 7.089 C 6.887,84.572 6.546,84.702 6.294,84.937 v 0 C 6.038,85.17 5.877,85.472 5.877,85.79 v 0 c 0,0.316 0.161,0.62 0.417,0.853 v 0 c 0.252,0.236 0.593,0.364 0.795,0.359 v 0 h 13.945 v 4.911 H 7.089 C 6.944,91.9 6.579,92.067 6.313,92.347 v 0 c -0.281,0.269 -0.448,0.634 -0.436,0.778 v 0 c -0.004,0.32 0.177,0.715 0.45,1.006 v 0 c 0.265,0.299 0.618,0.463 0.762,0.448 v 0 h 14.922 l 0.002,4.652 0.002,0.5 H 5.379 Z m 16.134,-0.5 v -0.5 z M 0.5,94.832 c 0.004,2.305 2.369,3.893 4.879,3.898 v 0 H 21.013 V 95.579 H 7.089 C 5.962,95.509 4.937,94.421 4.878,93.124 v 0 c 0.091,-1.123 1.088,-2.118 2.211,-2.212 v 0 H 20.034 V 88.001 H 7.089 C 6.065,87.972 4.923,87.119 4.878,85.789 v 0 c 0.045,-1.33 1.187,-2.183 2.211,-2.212 v 0 L 21.011,83.575 V 79.93 H 0.5 Z"
   id="path45" />
</g><g
     id="g52"
     transform="translate(0.001)">
	<path
   id="_x33_181_2_"
   d="M 100.979,99.478 H 84.843 c -2.688,0 -5.379,-1.711 -5.379,-4.397 V 79.677 h 21.515 v 4.645 H 86.553 c -0.731,0 -1.71,0.734 -1.71,1.715 0,0.981 0.979,1.711 1.71,1.711 h 13.446 v 3.91 H 86.553 c -0.731,0 -1.71,0.979 -1.71,1.714 0,0.979 0.979,1.954 1.71,1.954 h 14.426 z" />
	<path
   fill="#ffffff"
   d="M 84.843,99.978 C 81.975,99.972 78.99,98.149 78.964,95.08 v 0 -15.905 h 22.514 v 5.646 H 86.553 c -0.2,-0.006 -0.541,0.124 -0.793,0.359 v 0 c -0.256,0.235 -0.419,0.537 -0.417,0.857 v 0 c -0.002,0.315 0.159,0.617 0.417,0.851 v 0 c 0.25,0.233 0.59,0.363 0.793,0.357 v 0 h 13.945 v 4.912 L 86.553,92.155 c -0.145,-0.013 -0.508,0.155 -0.776,0.436 v 0 c -0.279,0.269 -0.448,0.635 -0.434,0.779 v 0 c -0.006,0.319 0.175,0.714 0.448,1.007 v 0 c 0.265,0.298 0.618,0.459 0.762,0.448 v 0 h 14.924 v 4.65 0.502 H 84.843 Z m 16.136,-0.502 V 98.977 Z M 79.963,95.079 c 0.004,2.303 2.371,3.891 4.88,3.897 v 0 h 15.635 V 95.823 H 86.553 c -1.127,-0.07 -2.15,-1.156 -2.212,-2.453 v 0 c 0.093,-1.124 1.09,-2.123 2.212,-2.214 v 0 h 12.946 v -2.91 H 86.553 c -1.022,-0.028 -2.167,-0.88 -2.212,-2.209 v 0 c 0.045,-1.335 1.188,-2.188 2.212,-2.216 v 0 h 13.925 V 80.175 H 79.963 Z"
   id="path50" />
</g><g
     id="g57"
     transform="translate(0.001)">
	<path
   id="_x33_181_3_"
   d="M 284.907,99.231 H 268.77 c -2.688,0 -5.381,-1.711 -5.381,-4.398 v -15.4 h 21.516 v 4.646 h -14.424 c -0.732,0 -1.715,0.733 -1.715,1.712 0,0.979 0.979,1.712 1.715,1.712 h 13.442 v 3.911 h -13.442 c -0.732,0 -1.715,0.979 -1.715,1.712 0,0.979 0.979,1.955 1.715,1.955 h 14.424 v 4.153 h 0.002 z" />
	<path
   fill="#ffffff"
   d="m 284.907,99.732 h -0.504 V 99.73 H 268.77 c -2.868,-0.006 -5.854,-1.828 -5.881,-4.898 v 0 -15.9 h 22.517 v 5.646 h -14.924 c -0.202,-0.005 -0.545,0.125 -0.797,0.36 v 0 c -0.259,0.233 -0.421,0.536 -0.419,0.853 v 0 c -0.002,0.314 0.16,0.617 0.417,0.853 v 0 c 0.252,0.233 0.597,0.363 0.799,0.358 v 0 h 13.94 v 4.912 l -13.94,-0.002 c -0.145,-0.013 -0.511,0.156 -0.78,0.436 v 0 c -0.281,0.269 -0.448,0.634 -0.436,0.777 v 0 c -0.004,0.319 0.177,0.713 0.45,1.007 v 0 c 0.265,0.299 0.619,0.461 0.766,0.448 v 0 h 14.924 v 4.653 0.5 h -0.499 z m -21.018,-4.9 c 0.005,2.304 2.371,3.892 4.881,3.898 v 0 h 15.634 v -3.152 h -13.922 c -1.13,-0.069 -2.156,-1.157 -2.215,-2.454 v 0 c 0.092,-1.123 1.093,-2.12 2.215,-2.212 v 0 L 283.423,90.91 V 88 h -12.941 c -1.026,-0.027 -2.171,-0.88 -2.215,-2.21 v 0 c 0.044,-1.332 1.19,-2.185 2.215,-2.214 v 0 h 13.922 V 79.93 h -20.515 z"
   id="path55" />
</g><g
     id="g62"
     transform="translate(0.001)">
	<path
   id="_x32_391_1_"
   d="m 54.517,79.675 v 4.4 h 6.355 c 1.712,0 1.712,0 1.712,1.957 v 13.199 h 6.111 V 86.032 c 0,-1.957 0,-1.957 1.956,-1.957 h 6.111 v -4.4 z" />
	<path
   fill="#ffffff"
   d="M 62.084,99.73 V 86.031 c 0,-0.55 -0.004,-0.938 -0.035,-1.163 v 0 c -0.033,-0.221 -0.056,-0.217 -0.056,-0.219 v 0 c 0,-0.002 -0.054,-0.031 -0.196,-0.048 v 0 c -0.186,-0.026 -0.5,-0.028 -0.925,-0.026 v 0 h -6.855 v -4.9 -0.502 h 23.246 v 5.4 l -6.612,0.002 c -0.729,-0.007 -1.181,0.017 -1.309,0.072 v 0 c -0.081,0.058 -0.045,-0.063 -0.12,0.308 v 0 c -0.025,0.227 -0.027,0.589 -0.027,1.076 v 0 13.699 H 62.084 Z M 55.016,83.573 h 5.856 c 0.834,0.027 1.361,-0.082 1.873,0.417 v 0 c 0.409,0.546 0.312,1.065 0.339,2.041 v 0 12.697 h 5.111 V 86.031 c 0.027,-0.967 -0.079,-1.519 0.39,-2.065 v 0 c 0.547,-0.471 1.099,-0.365 2.065,-0.391 v 0 h 5.613 v -3.4 H 55.016 Z m -0.5,-3.398 v -0.5 z"
   id="path60" />
</g><g
     id="g67"
     transform="translate(0.001)">
	<path
   id="_x32_391_2_"
   d="m 132.197,79.675 v 4.4 h 6.355 c 1.71,0 1.71,0 1.71,1.957 v 13.199 h 6.112 V 86.032 c 0,-1.957 0,-1.957 1.957,-1.957 h 6.112 v -4.4 z" />
	<path
   fill="#ffffff"
   d="M 139.761,99.73 V 86.031 c 0,-0.55 -0.002,-0.938 -0.033,-1.163 v 0 c -0.035,-0.221 -0.056,-0.217 -0.056,-0.219 v 0 c 0,-0.002 -0.054,-0.031 -0.196,-0.048 v 0 c -0.186,-0.026 -0.498,-0.028 -0.925,-0.026 v 0 h -6.856 v -4.9 -0.502 h 23.246 v 5.402 l -6.61,-0.002 c -0.731,-0.005 -1.183,0.019 -1.311,0.074 v 0 c -0.081,0.058 -0.045,-0.063 -0.12,0.308 v 0 c -0.024,0.227 -0.026,0.589 -0.026,1.076 v 0 13.699 z m -7.064,-16.157 h 5.854 c 0.834,0.027 1.361,-0.082 1.873,0.417 v 0 c 0.409,0.546 0.312,1.065 0.336,2.041 v 0 12.697 h 5.113 V 86.031 c 0.027,-0.967 -0.079,-1.519 0.39,-2.065 v 0 c 0.549,-0.471 1.101,-0.365 2.067,-0.393 v 0 h 5.611 v -3.398 h -21.245 v 3.398 z m -0.5,-3.398 v -0.5 z"
   id="path65" />
</g><g
     id="g72"
     transform="translate(0.001)">
	<path
   id="_x32_391_3_"
   d="m 317.909,79.675 v 4.4 h 6.354 c 1.713,0 1.713,0 1.713,1.957 v 13.199 h 6.11 V 86.032 c 0,-1.957 0,-1.957 1.955,-1.957 h 6.111 v -4.4 z" />
	<path
   fill="#ffffff"
   d="M 325.476,99.731 V 86.032 c 0,-0.55 -0.002,-0.94 -0.033,-1.165 v 0 c -0.034,-0.221 -0.057,-0.216 -0.057,-0.219 v 0 c 0,0 -0.053,-0.031 -0.195,-0.048 v 0 c -0.187,-0.025 -0.5,-0.027 -0.928,-0.025 v 0 h -6.854 v -4.9 -0.501 h 23.244 v 5.399 h -6.611 c -0.73,-0.006 -1.184,0.019 -1.31,0.075 v 0 c -0.082,0.057 -0.046,-0.064 -0.119,0.307 v 0 c -0.025,0.229 -0.027,0.588 -0.027,1.077 v 0 13.699 z m -7.069,-16.157 h 5.855 c 0.835,0.027 1.362,-0.084 1.876,0.416 v 0 c 0.409,0.545 0.311,1.067 0.336,2.042 v 0 12.698 h 5.112 V 86.032 c 0.025,-0.968 -0.08,-1.52 0.391,-2.067 v 0 c 0.548,-0.47 1.098,-0.363 2.064,-0.391 v 0 h 5.609 v -3.399 h -21.244 v 3.399 z m -0.499,-3.399 v -0.5 z"
   id="path70" />
</g><g
     id="g78"
     transform="translate(0.001)">
	<path
   d="m 105.366,79.675 v 19.559 h 6.356 v -3.42 c 0,-0.979 0.733,-1.959 1.711,-1.959 h 8.068 c 0.979,0 1.711,0.979 1.711,1.959 v 3.42 h 5.379 v -5.379 c 0,-0.73 -0.732,-1.709 -0.732,-2.688 0,-0.73 1.711,-2.441 1.711,-4.396 v -1.713 c 0,-1.714 -2.689,-5.381 -4.4,-5.381 z m 8.067,4.4 h 8.068 c 0.979,0 1.71,0.979 1.71,1.957 v 1.71 c 0,0.979 -0.732,1.713 -1.71,1.713 h -8.068 c -0.978,0 -1.711,-0.733 -1.711,-1.713 v -1.71 c 0.001,-0.976 0.733,-1.957 1.711,-1.957 z"
   id="path74" />
	<path
   fill="#ffffff"
   d="m 122.711,99.732 v -3.919 c -0.002,-0.756 -0.595,-1.458 -1.21,-1.46 v 0 h -8.068 c -0.615,0.002 -1.21,0.706 -1.212,1.46 v 0 3.919 h -7.355 V 79.675 79.174 l 20.305,0.002 c 1.2,0.043 2.286,1.069 3.233,2.24 v 0 c 0.923,1.197 1.644,2.546 1.665,3.641 v 0 1.714 c -0.002,1.126 -0.479,2.112 -0.919,2.901 v 0 c -0.45,0.756 -0.842,1.464 -0.791,1.495 v 0 c -0.035,0.758 0.68,1.669 0.731,2.687 v 0 5.879 h -6.379 z m -16.846,-0.999 h 5.357 v -2.92 c 0.006,-1.206 0.869,-2.431 2.211,-2.46 v 0 h 8.068 c 1.34,0.029 2.206,1.254 2.21,2.46 v 0 2.918 h 4.379 v -4.878 c 0.052,-0.441 -0.698,-1.489 -0.731,-2.687 v 0 c 0.05,-0.7 0.514,-1.214 0.919,-1.984 v 0 c 0.415,-0.739 0.795,-1.584 0.791,-2.412 v 0 -1.714 c 0.021,-0.619 -0.601,-1.962 -1.452,-3.025 v 0 c -0.824,-1.092 -1.937,-1.899 -2.449,-1.854 v 0 l -19.304,-0.002 v 18.558 z m -0.5,-18.558 v -0.5 z m 8.068,9.78 c -1.239,-0.004 -2.209,-0.975 -2.211,-2.214 v 0 -1.71 c 0.006,-1.202 0.869,-2.427 2.211,-2.457 v 0 0.499 0.502 c -0.615,0 -1.21,0.706 -1.212,1.456 v 0 1.71 c 0.014,0.721 0.493,1.199 1.212,1.212 v 0 h 8.068 c 0.717,-0.013 1.196,-0.491 1.21,-1.212 v 0 -1.71 c -0.002,-0.754 -0.595,-1.456 -1.21,-1.456 v 0 h -8.068 v -0.502 -0.499 h 8.068 c 1.34,0.028 2.204,1.253 2.21,2.457 v 0 1.71 c -0.002,1.237 -0.973,2.21 -2.21,2.214 v 0 z"
   id="path76" />
</g><g
     id="g84"
     transform="translate(0.001)">
	<path
   d="m 161.594,79.675 c -1.712,0 -4.399,3.667 -4.399,5.381 v 14.178 h 6.354 v -5.379 h 11.489 v 5.379 h 6.355 V 85.056 c 0,-1.714 -2.688,-5.381 -4.646,-5.381 z m 3.667,4.4 h 8.066 c 0.73,0 1.711,0.979 1.711,1.957 v 3.422 h -11.489 v -3.422 c 0,-0.976 0.734,-1.957 1.712,-1.957 z"
   id="path80" />
	<path
   fill="#ffffff"
   d="M 156.694,99.733 V 85.056 c 0.021,-1.095 0.741,-2.443 1.665,-3.643 v 0 c 0.946,-1.171 2.034,-2.195 3.236,-2.24 v 0 0.501 0.5 c -0.512,-0.043 -1.625,0.765 -2.449,1.856 v 0 c -0.849,1.062 -1.472,2.403 -1.45,3.025 v 0 l -0.002,13.675 h 5.354 v -5.378 h 12.489 l -0.002,5.38 h 5.356 V 85.056 c 0.022,-0.622 -0.599,-1.96 -1.477,-3.02 v 0 c -0.859,-1.088 -2.001,-1.896 -2.668,-1.862 v 0 h -15.153 v -0.5 -0.499 h 15.153 c 1.29,0.033 2.47,1.057 3.444,2.232 v 0 c 0.958,1.201 1.681,2.554 1.701,3.648 v 0 14.676 h -7.355 v -5.379 h -10.49 v 5.381 z m 6.354,-9.779 v -3.922 c 0.006,-1.204 0.872,-2.429 2.214,-2.459 v 0 0.502 0.499 c -0.616,0.002 -1.212,0.709 -1.214,1.458 v 0 2.92 h 10.49 v -2.92 c 0.004,-0.32 -0.178,-0.715 -0.45,-1.008 v 0 c -0.267,-0.301 -0.619,-0.462 -0.76,-0.45 v 0 h -8.065 v -0.499 -0.502 l 8.065,0.002 c 1.126,0.07 2.149,1.16 2.21,2.457 v 0 3.922 z"
   id="path82" />
</g><g
     id="g90"
     transform="translate(0.001)">
	<path
   d="M 191.907,99.231 V 79.673 h -6.11 v 19.559 h 6.11 z"
   id="path86" />
	<path
   fill="#ffffff"
   d="M 185.294,99.73 V 79.17 h 7.112 v 20.06 0.5 z m 6.612,-0.5 v -0.5 z m -5.61,-0.5 h 5.108 V 80.173 h -5.108 z"
   id="path88" />
</g><g
     id="g95"
     transform="translate(0.001)">
	<path
   id="_x33_177_2_"
   d="m 250.86,126.021 v -14.18 c 0,-2.688 -2.689,-5.379 -5.381,-5.379 h -27.623 v 19.559 h 6.354 V 112.82 c 0,-0.979 0.732,-1.957 1.71,-1.957 h 3.667 c 0.734,0 1.714,0.979 1.714,1.957 v 13.199 h 6.354 V 112.82 c 0,-0.979 0.73,-1.957 1.709,-1.957 h 3.668 c 0.732,0 1.715,0.979 1.715,1.957 v 13.199 h 6.111 z" />
	<path
   fill="#ffffff"
   d="m 250.649,126.518 h -6.402 V 112.82 c 0.004,-0.319 -0.179,-0.714 -0.451,-1.009 v 0 c -0.266,-0.299 -0.622,-0.461 -0.764,-0.449 v 0 h -3.669 c -0.616,0 -1.208,0.704 -1.21,1.458 v 0 13.698 h -7.354 V 112.82 c 0.005,-0.319 -0.176,-0.714 -0.448,-1.009 v 0 c -0.266,-0.299 -0.62,-0.461 -0.764,-0.449 v 0 h -3.667 c -0.616,0 -1.21,0.704 -1.212,1.458 v 0 13.698 h -7.353 V 105.96 l 28.122,0.002 c 3.015,0.037 5.845,2.867 5.883,5.877 v 0 14.181 1.209 z m 0.21,-0.498 0.354,-0.354 z m -32.503,-0.5 h 5.353 v -12.7 c 0.006,-1.206 0.87,-2.429 2.211,-2.458 v 0 h 3.667 c 1.129,0.07 2.15,1.162 2.213,2.458 v 0 l -0.002,12.698 h 5.356 V 112.82 c 0.004,-1.204 0.868,-2.429 2.209,-2.458 v 0 h 3.669 c 1.127,0.072 2.153,1.16 2.213,2.458 v 0 12.698 h 5.114 v -13.679 c 0.004,-1.173 -0.601,-2.412 -1.534,-3.342 v 0 c -0.931,-0.935 -2.17,-1.539 -3.348,-1.535 v 0 h -27.121 z"
   id="path93" />
</g><g
     id="g100"
     transform="translate(0.001)">
	<path
   id="_x33_181_4_"
   d="m 213.479,126.021 h -16.137 c -2.688,0 -5.377,-1.713 -5.377,-4.397 V 106.22 h 21.512 v 4.646 h -14.422 c -0.732,0 -1.713,0.732 -1.713,1.711 0,0.979 0.979,1.712 1.713,1.712 h 13.443 v 3.911 h -13.443 c -0.732,0 -1.713,0.979 -1.713,1.713 0,0.979 0.979,1.954 1.713,1.954 h 14.422 z" />
	<path
   fill="#ffffff"
   d="m 197.344,126.519 c -2.868,-0.004 -5.854,-1.829 -5.878,-4.896 v 0 -15.904 h 22.51 v 5.646 h -14.921 c -0.201,-0.005 -0.543,0.126 -0.796,0.36 v 0 c -0.257,0.234 -0.418,0.536 -0.418,0.852 v 0 c 0,0.316 0.161,0.619 0.418,0.854 v 0 c 0.251,0.233 0.593,0.364 0.796,0.358 v 0 h 13.942 v 4.912 l -13.942,-0.002 c -0.144,-0.013 -0.51,0.155 -0.777,0.437 v 0 c -0.281,0.268 -0.449,0.632 -0.437,0.777 v 0 c -0.005,0.318 0.178,0.713 0.451,1.005 v 0 c 0.264,0.3 0.617,0.462 0.763,0.449 v 0 h 14.921 l 0.002,4.653 0.002,0.501 z m 16.135,-0.499 v -0.499 z m -21.014,-4.397 c 0.004,2.3 2.369,3.891 4.879,3.897 v 0 h 15.635 l -0.002,-3.155 h -13.922 c -1.129,-0.068 -2.152,-1.156 -2.213,-2.453 v 0 c 0.092,-1.123 1.092,-2.122 2.213,-2.213 v 0 l 12.944,-0.002 v -2.909 h -12.944 c -1.025,-0.028 -2.169,-0.882 -2.213,-2.212 v 0 c 0.046,-1.33 1.189,-2.182 2.213,-2.211 v 0 h 13.922 v -3.646 h -20.512 z"
   id="path98" />
</g><g
     id="g105"
     transform="translate(0.001)">
	<path
   id="_x32_391_4_"
   d="m 167.017,106.462 v 4.398 h 6.355 c 1.711,0 1.711,0 1.711,1.957 v 13.199 h 6.111 v -13.199 c 0,-1.957 0,-1.957 1.959,-1.957 h 6.109 v -4.398 z" />
	<path
   fill="#ffffff"
   d="m 174.583,126.516 v -13.698 c 0,-0.551 -0.004,-0.94 -0.035,-1.164 v 0 c -0.033,-0.222 -0.057,-0.218 -0.057,-0.22 v 0 c 0,0 -0.052,-0.031 -0.194,-0.048 v 0 c -0.187,-0.024 -0.499,-0.026 -0.926,-0.026 v 0 h -6.855 v -4.897 -0.502 h 23.245 v 5.399 h -6.607 c -0.731,-0.006 -1.185,0.017 -1.312,0.074 v 0 c -0.082,0.057 -0.047,-0.064 -0.12,0.307 v 0 c -0.026,0.229 -0.028,0.587 -0.028,1.077 v 0 13.698 z m -7.066,-16.158 5.854,0.002 c 0.835,0.025 1.361,-0.085 1.873,0.415 v 0 c 0.41,0.545 0.313,1.066 0.337,2.042 v 0 12.698 h 5.113 v -12.698 c 0.025,-0.967 -0.079,-1.519 0.39,-2.067 v 0 c 0.549,-0.47 1.1,-0.364 2.069,-0.39 v 0 l 5.608,-0.002 v -3.397 h -21.245 v 3.397 z m -0.5,-3.397 v -0.499 z"
   id="path103" />
</g><g
     id="g110"
     transform="translate(0.001)">
	<path
   id="_x33_187_1_"
   d="m 94.611,106.565 c -1.712,0 -5.379,2.689 -5.379,4.397 v 2.69 c 0,1.713 3.667,4.4 5.379,4.4 h 10.756 c 0.978,0 1.956,0.979 1.956,1.711 0,0.978 -0.979,1.954 -1.956,1.954 H 89.232 v 4.399 h 18.09 c 1.712,0 5.134,-2.688 5.134,-4.399 v -2.688 c 0,-1.957 -3.422,-4.646 -5.134,-4.646 H 96.566 c -0.979,0 -1.955,-0.733 -1.955,-1.713 0,-0.978 0.977,-1.713 1.955,-1.713 h 15.89 V 106.56 H 94.611 Z" />
	<path
   fill="#ffffff"
   d="m 88.732,126.618 v -5.401 h 16.634 c 0.319,0.005 0.702,-0.172 0.992,-0.464 v 0 c 0.292,-0.288 0.468,-0.671 0.464,-0.988 v 0 c 0.012,-0.145 -0.149,-0.497 -0.45,-0.762 v 0 c -0.292,-0.273 -0.688,-0.454 -1.007,-0.45 v 0 H 94.609 c -1.092,-0.021 -2.44,-0.741 -3.64,-1.665 v 0 c -1.168,-0.947 -2.194,-2.033 -2.238,-3.234 v 0 -2.691 c 0.043,-1.199 1.069,-2.285 2.238,-3.233 v 0 c 1.022,-0.786 2.153,-1.426 3.141,-1.61 v 0 -0.058 h 18.845 v 5.396 l -16.39,0.002 c -0.75,0 -1.455,0.595 -1.455,1.212 v 0 c 0,0.618 0.703,1.212 1.455,1.212 v 0 h 10.756 c 1.098,0.021 2.393,0.753 3.535,1.71 v 0 c 1.114,0.978 2.071,2.169 2.099,3.438 v 0 2.688 c -0.038,1.177 -0.995,2.278 -2.105,3.226 v 0 c -1.138,0.924 -2.432,1.651 -3.528,1.674 v 0 h -18.59 z m 1.001,-1.001 h 17.589 c 0.615,0.021 1.89,-0.597 2.89,-1.443 v 0 c 1.027,-0.822 1.782,-1.923 1.745,-2.455 v 0 -2.688 c 0.027,-0.689 -0.728,-1.82 -1.751,-2.679 v 0 c -0.999,-0.874 -2.271,-1.489 -2.884,-1.469 v 0 H 96.565 c -1.206,-0.006 -2.426,-0.872 -2.455,-2.213 v 0 c 0.029,-1.338 1.249,-2.206 2.455,-2.212 v 0 l 15.389,-0.002 V 107.06 H 95.111 v 0.005 H 94.61 c -0.617,-0.021 -1.959,0.601 -3.022,1.45 v 0 c -1.092,0.826 -1.9,1.938 -1.856,2.446 v 0 2.691 c -0.043,0.51 0.765,1.624 1.856,2.449 v 0 c 1.063,0.849 2.405,1.471 3.022,1.45 v 0 h 10.757 c 1.297,0.062 2.387,1.083 2.457,2.212 v 0 c -0.038,1.299 -1.156,2.416 -2.457,2.453 v 0 H 89.733 Z m 4.876,-19.052 v -0.501 z"
   id="path108" />
</g><g
     id="g115"
     transform="translate(0.001)">
	<path
   id="_x33_187_2_"
   d="m 146.397,106.565 c -1.713,0 -5.38,2.689 -5.38,4.397 v 2.69 c 0,1.713 3.667,4.4 5.38,4.4 h 10.756 c 0.978,0 1.956,0.979 1.956,1.711 0,0.978 -0.979,1.954 -1.956,1.954 h -16.136 v 4.399 h 18.091 c 1.712,0 5.134,-2.688 5.134,-4.399 v -2.688 c 0,-1.957 -3.422,-4.646 -5.134,-4.646 h -10.757 c -0.978,0 -1.955,-0.733 -1.955,-1.713 0,-0.978 0.978,-1.713 1.955,-1.713 h 15.891 v -4.397 h -17.845 z" />
	<path
   fill="#ffffff"
   d="m 140.515,126.618 v -5.401 h 16.638 c 0.317,0.005 0.701,-0.172 0.991,-0.464 v 0 c 0.292,-0.288 0.468,-0.671 0.464,-0.988 v 0 c 0.012,-0.145 -0.149,-0.497 -0.447,-0.762 v 0 c -0.294,-0.273 -0.69,-0.454 -1.007,-0.45 v 0 h -10.756 c -1.094,-0.021 -2.442,-0.741 -3.642,-1.665 v 0 c -1.168,-0.947 -2.194,-2.033 -2.237,-3.234 v 0 l -0.002,-2.691 c 0.046,-1.199 1.071,-2.285 2.242,-3.233 v 0 c 1.021,-0.786 2.152,-1.426 3.141,-1.61 v 0 -0.058 h 18.844 v 5.396 l -16.392,0.002 c -0.75,0 -1.454,0.597 -1.457,1.212 v 0 c 0.002,0.618 0.705,1.212 1.457,1.212 v 0 h 10.757 c 1.098,0.021 2.395,0.753 3.534,1.71 v 0 c 1.115,0.978 2.074,2.169 2.101,3.438 v 0 2.688 c -0.037,1.177 -0.997,2.278 -2.107,3.226 v 0 c -1.137,0.924 -2.43,1.651 -3.528,1.674 v 0 h -18.594 z m 1.003,-1.001 h 17.589 c 0.615,0.021 1.889,-0.597 2.89,-1.443 v 0 c 1.028,-0.822 1.782,-1.923 1.745,-2.455 v 0 -2.688 c 0.027,-0.689 -0.727,-1.82 -1.75,-2.679 v 0 c -0.999,-0.874 -2.271,-1.489 -2.884,-1.469 v 0 h -10.757 c -1.206,-0.006 -2.426,-0.872 -2.455,-2.213 v 0 c 0.029,-1.34 1.251,-2.206 2.455,-2.212 v 0 h 15.391 l -0.002,-3.398 h -16.843 v 0.003 h -0.5 c -0.62,-0.02 -1.962,0.603 -3.025,1.452 v 0 c -1.092,0.826 -1.899,1.938 -1.856,2.446 v 0 2.691 c -0.043,0.51 0.764,1.624 1.856,2.449 v 0 c 1.063,0.849 2.405,1.471 3.025,1.45 v 0 h 10.756 c 1.295,0.062 2.385,1.083 2.455,2.212 v 0 c -0.037,1.299 -1.156,2.416 -2.455,2.453 v 0 h -15.637 z m 4.879,-19.052 v -0.501 z"
   id="path113" />
</g><g
     id="g121"
     transform="translate(0.001)">
	<path
   d="m 114.412,106.565 v 8.804 c 0,1.71 2.688,4.399 4.4,4.399 h 4.398 v 6.354 h 6.357 v -6.354 h 4.4 c 1.71,0 4.4,-2.689 4.4,-4.399 v -8.804 h -6.112 v 7.092 c 0,0.732 -0.978,1.712 -1.956,1.712 h -7.822 c -0.979,0 -1.956,-0.979 -1.956,-1.712 v -7.092 z"
   id="path117" />
	<path
   fill="#ffffff"
   d="m 122.709,126.621 v -6.354 h -3.897 c -1.112,-0.021 -2.246,-0.771 -3.196,-1.705 v 0 c -0.935,-0.951 -1.685,-2.084 -1.705,-3.195 v 0 -8.803 -0.499 h 7.11 v 7.591 c -0.012,0.144 0.149,0.497 0.448,0.763 v 0 c 0.294,0.271 0.688,0.453 1.009,0.449 v 0 h 7.821 c 0.319,0.004 0.713,-0.178 1.007,-0.449 v 0 c 0.301,-0.266 0.462,-0.619 0.45,-0.763 v 0 -7.591 h 7.112 v 9.302 c -0.023,1.111 -0.772,2.244 -1.705,3.195 v 0 c -0.953,0.935 -2.086,1.685 -3.194,1.705 v 0 h -3.901 v 6.354 z m 0.999,-7.354 v 6.354 h 5.357 v -6.354 h 4.902 c 0.599,0.022 1.666,-0.574 2.486,-1.411 v 0 c 0.839,-0.82 1.434,-1.887 1.413,-2.488 v 0 -8.303 h -5.113 v 6.592 c -0.07,1.129 -1.16,2.15 -2.455,2.211 v 0 l -7.821,0.002 c -1.297,-0.063 -2.387,-1.086 -2.457,-2.213 v 0 -6.592 h -5.109 v 8.303 c -0.021,0.602 0.574,1.668 1.411,2.488 v 0 c 0.821,0.837 1.888,1.434 2.49,1.411 v 0 z m -9.296,-12.203 v -0.5 z"
   id="path119" />
</g><g
     transform="matrix(1.963267,-0.64630396,0.71457078,1.7757055,-307.35833,-67.46968)"
     style="font-size:53.3333px;line-height:1.25;fill:#d61616;stroke:#000000"
     id="g41"><path
       d="m 139.67184,177.70096 q 0,-0.28646 0.0781,-0.75521 0.10417,-0.49479 0.23438,-0.98958 0.1302,-0.52083 0.26041,-0.98958 0.15625,-0.46875 0.23438,-0.75521 L 151.026,139.60202 q 0.1302,-0.18229 0.28645,-0.3125 0.13021,-0.1302 0.33855,-0.20833 0.23437,-0.10417 0.54687,-0.10417 h 0.44271 q 0.57292,0 0.96354,0.20834 0.39062,0.18229 0.625,0.52083 0.23437,0.3125 0.3125,0.75521 0.10417,0.41666 0.10417,0.91146 0,0.41666 -0.0781,0.88541 -0.0521,0.44271 -0.13021,0.88542 -0.0781,0.41666 -0.18229,0.78125 -0.0781,0.36458 -0.13021,0.57291 l -5.41666,18.48958 2.47396,-0.23438 q 4.14062,-0.91146 8.43749,-1.875 4.32292,-0.98958 8.46354,-1.90104 0.46875,-0.23437 0.83333,-0.96354 0.36458,-0.72917 0.70313,-1.90104 0.36458,-1.17187 0.78125,-2.73437 0.41666,-1.58854 1.01562,-3.51563 l 0.54687,-1.79687 q 0.33855,-1.30208 0.59896,-2.65625 0.28646,-1.38021 0.67709,-2.5 0.39062,-1.11979 0.98958,-1.82291 0.59896,-0.72917 1.53646,-0.72917 1.32812,0 2.05729,0.85938 0.72916,0.83333 0.72916,2.10937 0,0.80729 -0.625,2.70833 -0.59896,1.90104 -1.51041,4.63541 -0.33854,1.01563 -0.72917,2.08334 -0.39062,1.0677 -0.72917,2.05729 -0.3125,0.96354 -0.52083,1.79687 -0.20833,0.80729 -0.20833,1.30208 0,0.46875 0.13021,0.9375 0.1302,0.44271 0.1302,0.96354 0,1.17188 -0.625,1.95313 -0.62499,0.78125 -1.71874,1.58854 -0.0521,0.20833 -0.15625,0.65104 -0.0781,0.44271 -0.20834,0.91146 l -0.33854,1.32812 q -0.36458,1.43229 -0.625,2.86458 -0.23437,1.43229 -0.44271,2.83854 -0.18229,1.40625 -0.41666,2.8125 -0.20834,1.40625 -0.54688,2.78646 -0.13021,0.52083 -0.46875,0.9375 -0.3125,0.39062 -0.75521,0.67708 -0.41666,0.28646 -0.88541,0.44271 -0.46875,0.15625 -0.88542,0.15625 -0.625,0 -1.01562,-0.28646 -0.39063,-0.28646 -0.625,-0.67708 -0.20833,-0.39063 -0.28646,-0.80729 -0.0781,-0.41667 -0.0781,-0.70313 0,-0.3125 0.0781,-1.01562 0.10417,-0.72917 0.26042,-1.69271 0.15625,-0.96354 0.36458,-2.08333 0.20833,-1.11979 0.41667,-2.26563 0.49479,-2.65624 1.14583,-5.80728 h -0.18229 q -0.67709,0 -1.45833,0.15625 -0.78125,0.1302 -1.875,0.39062 -0.4948,0.15625 -1.48438,0.41667 -0.96354,0.26041 -2.21354,0.59896 -1.25,0.33854 -2.70833,0.72916 -1.43229,0.39063 -2.86458,0.78125 l -7.05729,1.92708 q -0.49479,1.01563 -0.9375,2.21354 -0.41666,1.17188 -0.78125,2.39584 -0.36458,1.19791 -0.67708,2.36979 -0.28646,1.17187 -0.54688,2.21354 -0.0781,0.28645 -0.33854,0.625 -0.23437,0.33854 -0.57291,0.625 -0.3125,0.28645 -0.67709,0.46875 -0.33854,0.18229 -0.65104,0.18229 -0.57291,0 -0.96354,-0.26042 -0.36458,-0.23437 -0.59896,-0.65104 -0.23437,-0.39063 -0.33854,-0.91146 -0.0781,-0.49479 -0.0781,-0.98958 z"
       style="font-family:'MV Boli';-inkscape-font-specification:'MV Boli'"
       id="path17609" /><path
       d="m 191.96347,177.36242 q 0,-0.75521 0.1823,-1.79688 0.18229,-1.0677 0.18229,-2.6302 -0.85938,0.625 -1.90104,1.48437 -1.04167,0.85938 -2.16146,1.64062 -1.11979,0.78125 -2.23958,1.32813 -1.09375,0.52083 -2.05729,0.52083 -0.78125,0 -1.48438,-0.23437 -0.70312,-0.23438 -1.19791,-0.625 -1.38021,-1.09375 -2.00521,-2.1875 -0.59896,-1.09375 -0.59896,-2.55208 0,-0.65104 0.10417,-1.35417 0.13021,-0.70312 0.36458,-1.61458 0.98958,-4.11458 3.38542,-7.60416 2.42187,-3.51563 5.98958,-5.98958 1.3802,-0.96354 2.76041,-1.22396 1.38021,-0.28646 2.73437,-0.28646 0.59896,0 1.32813,0.0781 0.75521,0.0781 1.35416,0.15625 0.59896,-0.13021 0.96355,-0.1823 0.39062,-0.0521 0.80729,-0.0521 0.78125,0 1.30208,0.20833 0.52083,0.20834 0.83333,0.57292 0.3125,0.33854 0.44271,0.80729 0.15625,0.44271 0.15625,0.9375 0,0.67708 -0.20833,1.30208 -0.20834,0.59896 -0.41667,1.22396 l -3.4375,13.72395 q -0.10416,1.11979 -0.18229,2.05729 -0.0781,0.9375 -0.3125,1.74479 -0.0781,0.23438 -0.20833,0.59896 -0.10417,0.33854 -0.36459,0.67708 -0.26041,0.3125 -0.65104,0.54688 -0.39062,0.23437 -1.01562,0.23437 -0.80729,0 -1.30208,-0.10416 -0.46875,-0.10417 -0.72917,-0.28646 -0.26042,-0.20833 -0.33854,-0.46875 -0.0781,-0.28646 -0.0781,-0.65104 z m -8.64582,-7.86458 q -0.10417,0.36458 -0.23438,1.04166 -0.10417,0.67709 -0.10417,1.35417 0,0.70313 0.20834,1.27604 0.20833,0.54688 0.91146,0.54688 1.09374,0 2.03124,-0.46875 0.96355,-0.49479 1.79688,-1.17188 1.11979,-0.91146 2.26562,-2.03125 1.17188,-1.14583 2.1875,-2.39583 1.04167,-1.25 1.82292,-2.55208 0.80729,-1.32812 1.17187,-2.63021 0.20833,-0.75521 0.33854,-1.74479 0.15625,-0.98958 0.15625,-1.77083 0,-0.33854 -0.15625,-0.65104 -0.15625,-0.33854 -0.59896,-0.33854 -1.27604,0 -2.57812,0.49479 -1.27604,0.49479 -2.47396,1.32812 -1.19791,0.83334 -2.29166,1.97917 -1.06771,1.11979 -1.95313,2.42187 -0.88541,1.27604 -1.53645,2.65625 -0.625,1.35417 -0.96354,2.65625 z"
       style="font-family:'MV Boli';-inkscape-font-specification:'MV Boli'"
       id="path17611" /><path
       d="m 205.24471,168.29992 q 0.49479,-2.0052 1.45833,-4.1927 0.98959,-2.1875 2.3698,-4.21875 1.3802,-2.05729 3.12499,-3.77604 1.77084,-1.74479 3.85417,-2.83854 0.67708,-0.36458 1.48437,-0.54687 0.80729,-0.1823 1.64063,-0.1823 0.85937,0 1.58854,0.15625 0.7552,0.15625 1.27604,0.52084 0.54687,0.36458 0.85937,0.9375 0.3125,0.57291 0.3125,1.40625 0,0.62499 -0.18229,1.27604 -0.18229,0.625 -0.54687,1.14583 -0.36459,0.49479 -0.91146,0.80729 -0.54688,0.3125 -1.27604,0.3125 -0.57292,0 -1.06771,-0.20833 -0.46875,-0.20834 -0.91146,-0.46875 -0.23437,-0.15625 -0.44271,-0.26042 -0.20833,-0.13021 -0.49479,-0.23437 -1.04166,0.46875 -1.97916,1.24999 -0.91146,0.75521 -1.71875,1.69271 -0.78125,0.9375 -1.45834,2.00521 -0.65104,1.06771 -1.19791,2.13541 -0.52083,1.06771 -0.91146,2.10938 -0.36458,1.01562 -0.59896,1.875 -0.18229,0.625 -0.33854,1.43229 -0.13021,0.78125 -0.13021,1.53646 0,0.52083 0.0781,0.98958 0.10416,0.46875 0.33854,0.83333 0.23437,0.36458 0.625,0.57292 0.39062,0.20833 0.96354,0.20833 0.91146,0 1.79687,-0.23437 0.91146,-0.23438 1.77084,-0.59896 0.85937,-0.36459 1.66666,-0.83334 0.83334,-0.49479 1.61458,-0.98958 0.4948,-0.3125 0.98959,-0.65104 0.49479,-0.33854 0.9375,-0.59896 0.4427,-0.26041 0.80729,-0.41666 0.39062,-0.1823 0.67708,-0.1823 0.39063,0 0.72917,0.20834 0.33854,0.18229 0.33854,0.65104 0,0.33854 -0.15625,0.75521 -0.36458,1.01562 -0.98958,1.82291 -0.625,0.80729 -1.40625,1.45834 -0.75521,0.62499 -1.64063,1.11979 -0.85937,0.49479 -1.71875,0.91145 -1.61458,0.85938 -3.28124,1.30209 -1.64063,0.41666 -2.76042,0.41666 -0.36458,0 -0.85937,-0.0781 -0.49479,-0.0781 -0.85938,-0.23438 -2.10937,-0.91145 -3.07291,-2.44791 -0.96354,-1.53646 -0.96354,-3.64583 0,-0.91146 0.1302,-1.90104 0.15625,-1.01563 0.44271,-2.10938 z"
       style="font-family:'MV Boli';-inkscape-font-specification:'MV Boli'"
       id="path17613" /><path
       d="m 238.76032,165.87805 q -0.52083,0 -1.17187,0.26042 -0.65104,0.23437 -1.30208,0.57291 -0.65104,0.33854 -1.25,0.70313 -0.59896,0.36458 -1.04167,0.57291 l -2.36979,9.375 q -0.13021,0.54687 -0.65104,0.83333 -0.52083,0.28646 -0.96354,0.28646 -1.40625,0 -1.92708,-0.54688 -0.4948,-0.57291 -0.4948,-1.48437 0,-0.39063 0.0521,-0.78125 0.0781,-0.41667 0.18229,-0.85937 l 0.10417,-0.44271 q 0.15625,-0.70313 0.41666,-1.77083 0.28646,-1.06771 0.59896,-2.23959 0.3125,-1.19791 0.625,-2.39583 0.33854,-1.22396 0.625,-2.23958 0.28646,-0.98958 0.83333,-2.94271 0.57292,-1.95312 1.25,-4.37499 0.70313,-2.42188 1.43229,-5.05209 0.75521,-2.65624 1.40625,-5.05208 0.67708,-2.39583 1.19792,-4.24478 0.52083,-1.875 0.72916,-2.76042 0.23438,-0.36458 0.72917,-0.59896 0.49479,-0.23437 1.17187,-0.23437 0.46875,0 0.96355,0.13021 0.49479,0.10416 0.88541,0.36458 0.41667,0.23437 0.67708,0.625 0.26042,0.36458 0.26042,0.85937 0,0.33854 -0.15625,0.80729 -1.5625,4.53125 -3.09895,9.40104 -1.53646,4.84375 -2.78646,9.8177 0.33854,-0.20833 1.25,-0.85937 0.91146,-0.65104 2.0052,-1.51042 1.1198,-0.85937 2.23959,-1.79687 1.11979,-0.9375 1.875,-1.69271 0.52083,-0.52083 1.04166,-1.06771 0.54688,-0.57291 1.01563,-1.0677 0.49479,-0.52084 0.85937,-0.91146 0.36458,-0.41667 0.57292,-0.65104 0.49479,-0.57292 1.0677,-0.9375 0.59896,-0.39063 1.19792,-0.39063 0.57292,0 1.04167,0.18229 0.46875,0.1823 0.80729,0.46875 0.33854,0.26042 0.52083,0.625 0.18229,0.33854 0.18229,0.65104 0,0.39063 -0.18229,0.83334 -0.18229,0.44271 -0.44271,0.85937 -0.23437,0.41667 -0.52083,0.78125 -0.28646,0.33854 -0.49479,0.52083 -0.70313,0.625 -1.58854,1.38021 -0.88542,0.72917 -1.84896,1.51042 -0.96354,0.75521 -1.97917,1.53646 -0.98958,0.7552 -1.92708,1.45833 1.64063,0.91146 2.68229,2.44791 1.06771,1.51042 1.69271,3.38542 0.625,1.84895 0.85937,3.90625 0.23438,2.05729 0.23438,4.01041 0,0.15625 -0.026,0.49479 -0.026,0.3125 -0.10417,0.59896 -0.13021,0.46875 -0.3125,0.85937 -0.18229,0.39063 -0.49479,0.65104 -0.28646,0.28646 -0.72917,0.44271 -0.41666,0.15625 -1.04166,0.15625 -0.59896,0 -1.01563,-0.20833 -0.41666,-0.20833 -0.70312,-0.54688 -0.26042,-0.33854 -0.39063,-0.7552 -0.1302,-0.41667 -0.1302,-0.83334 0,-1.30208 -0.0781,-2.68229 -0.0781,-1.40625 -0.3125,-2.70833 -0.23437,-1.30208 -0.65104,-2.44791 -0.39063,-1.17188 -1.04167,-2.00521 -0.46875,-0.59896 -0.88541,-0.9375 -0.39063,-0.33854 -0.96354,-0.33854 z m 4.94792,-11.71874 z"
       style="font-family:'MV Boli';-inkscape-font-specification:'MV Boli'"
       id="path17615" /><path
       d="m 254.15094,173.87284 q 0.20833,0 0.36458,0.0521 0.18229,0.0521 0.39063,0.13021 0.20833,0.0521 0.46875,0.10416 0.26041,0.0521 0.67708,0.0521 1.22396,0 2.70833,-0.26042 1.51042,-0.26042 2.83854,-0.67708 1.32813,-0.41667 2.26562,-0.9375 0.96355,-0.54688 1.09375,-1.11979 0.0781,-0.3125 0.0781,-0.54688 0,-0.44271 -0.44271,-0.83333 -0.41667,-0.41667 -1.06771,-0.78125 -0.65104,-0.36458 -1.40625,-0.67708 -0.7552,-0.3125 -1.40624,-0.57292 l -0.88542,-0.36458 q -0.67708,-0.26042 -1.32813,-0.625 -0.65104,-0.39063 -1.22395,-0.88542 -0.54688,-0.49479 -0.98959,-1.14583 -0.41666,-0.67708 -0.625,-1.53646 -0.10416,-0.36458 -0.18229,-0.72916 -0.0521,-0.36459 -0.0521,-0.78125 0,-0.67709 0.44271,-1.53646 0.46875,-0.88542 1.22396,-1.74479 0.78125,-0.85938 1.74479,-1.64063 0.98958,-0.78125 2.05729,-1.30208 0.78125,-0.54687 1.51041,-0.98958 0.72917,-0.44271 1.45833,-0.75521 0.75521,-0.3125 1.51042,-0.49479 0.78125,-0.18229 1.64062,-0.18229 0.78125,0 1.69271,0.0781 0.91146,0.0781 1.66667,0.36459 0.75521,0.28645 1.25,0.85937 0.52083,0.54688 0.52083,1.48438 0,0.28645 -0.0781,0.7552 -0.0781,0.46875 -0.26042,0.9375 -0.18229,0.46875 -0.44271,0.80729 -0.26042,0.33855 -0.625,0.33855 -0.59896,0 -0.98958,-0.23438 -0.39063,-0.23437 -0.70313,-0.49479 -0.3125,-0.28646 -0.65104,-0.52083 -0.33854,-0.23438 -0.83333,-0.23438 -0.59896,0 -1.40625,0.23438 -0.78125,0.20833 -1.61458,0.59895 -0.83333,0.36459 -1.64063,0.85938 -0.78125,0.49479 -1.43229,1.01562 -0.625,0.52084 -1.01562,1.04167 -0.39063,0.49479 -0.39063,0.91146 0,0.4427 0.28646,0.72916 0.28646,0.28646 0.72917,0.49479 0.57291,0.3125 1.30208,0.625 0.75521,0.3125 1.51042,0.625 0.7552,0.3125 1.45833,0.625 0.72917,0.3125 1.25,0.57292 0.70312,0.36458 1.25,0.72917 0.57291,0.33854 0.96354,0.7552 0.39062,0.41667 0.59896,0.9375 0.20833,0.52084 0.20833,1.22396 0,0.33854 -0.0521,0.67708 -0.0521,0.33854 -0.15625,0.78125 -0.0781,0.39063 -0.28646,0.91146 -0.18229,0.52083 -0.41667,1.04167 -0.20833,0.49479 -0.44271,0.91145 -0.23437,0.39063 -0.39062,0.52084 -1.01563,0.9375 -2.39583,1.77083 -1.38021,0.80729 -2.89063,1.43229 -1.48437,0.59896 -2.99479,0.96354 -1.48437,0.36458 -2.73437,0.36458 -0.625,0 -1.38021,-0.23437 -0.7552,-0.26042 -1.40625,-0.65104 -0.625,-0.41667 -1.0677,-0.9375 -0.41667,-0.52083 -0.41667,-1.04167 0,-0.26041 0.15625,-0.57291 0.15625,-0.33854 0.39062,-0.59896 0.23438,-0.28646 0.4948,-0.46875 0.28645,-0.20833 0.52083,-0.20833 z"
       style="font-family:'MV Boli';-inkscape-font-specification:'MV Boli'"
       id="path17617" /></g></g></svg>
